<?xml version="1.0"?>


<svg fill-opacity="1" xmlns:xlink="http://www.w3.org/1999/xlink"
     color-rendering="auto" color-interpolation="auto" text-rendering="auto"
     stroke="black" stroke-linecap="square" width="735" stroke-miterlimit="10"
     shape-rendering="auto" stroke-opacity="1" fill="black"
     stroke-dasharray="none" font-weight="normal" stroke-width="1"
     viewBox="0 0 735 295" height="295" xmlns="http://www.w3.org/2000/svg"
     font-family="'Dialog'" font-style="normal" stroke-linejoin="miter"
     font-size="12px" stroke-dashoffset="0" image-rendering="auto">
    <!--Generated by Archi with Batik SVG Generator-->
    <defs id="genericDefs"/>
    <g>
        <defs id="defs1">
            <clipPath clipPathUnits="userSpaceOnUse" id="clipPath1">
                <path d="M9 9 L552 9 L552 48 L9 48 L9 9 Z"/>
            </clipPath>
            <clipPath clipPathUnits="userSpaceOnUse" id="clipPath2">
                <path d="M137 15 L423 15 L423 42 L137 42 L137 15 Z"/>
            </clipPath>
            <clipPath clipPathUnits="userSpaceOnUse" id="clipPath3">
                <path d="M513 237 L726 237 L726 286 L513 286 L513 237 Z"/>
            </clipPath>
            <clipPath clipPathUnits="userSpaceOnUse" id="clipPath4">
                <path d="M518 242 L708 242 L708 274 L518 274 L518 242 Z"/>
            </clipPath>
            <clipPath clipPathUnits="userSpaceOnUse" id="clipPath5">
                <path d="M69 81 L191 81 L191 138 L69 138 L69 81 Z"/>
            </clipPath>
            <clipPath clipPathUnits="userSpaceOnUse" id="clipPath6">
                <path d="M96 85 L163 85 L163 117 L96 117 L96 85 Z"/>
            </clipPath>
            <clipPath clipPathUnits="userSpaceOnUse" id="clipPath7">
                <path d="M309 81 L431 81 L431 138 L309 138 L309 81 Z"/>
            </clipPath>
            <clipPath clipPathUnits="userSpaceOnUse" id="clipPath8">
                <path d="M336 85 L403 85 L403 134 L336 134 L336 85 Z"/>
            </clipPath>
        </defs>
        <g font-size="18px" fill="white" text-rendering="optimizeLegibility"
           font-family="'Segoe UI'" stroke-linejoin="round" stroke="white"
           font-weight="bold" stroke-width="0" stroke-miterlimit="0">
            <path d="M10 10 L550 10 L550 46 L10 46 Z" fill-rule="evenodd"
                  clip-path="url(#clipPath1)" stroke="none"/>
            <path fill="black"
                  d="M150.5312 36 L147.4375 36 L146.5312 33.2031 L142.0469 33.2031 L141.1719 36 L138.0938 36 L142.6719 23.3906 L146.0469 23.3906 L150.5312 36 ZM145.8906 31.0156 L144.5312 26.7812 Q144.375 26.3125 144.3125 25.6406 L144.25 25.6406 Q144.2031 26.2031 144.0312 26.75 L142.6562 31.0156 L145.8906 31.0156 ZM157.7031 29.5 Q157.2031 29.2344 156.5312 29.2344 Q155.625 29.2344 155.1094 29.9062 Q154.6094 30.5625 154.6094 31.7031 L154.6094 36 L151.8281 36 L151.8281 27 L154.6094 27 L154.6094 28.6719 L154.6406 28.6719 Q155.2969 26.8438 157.0156 26.8438 Q157.4531 26.8438 157.7031 26.9531 L157.7031 29.5 ZM165.8037 35.6719 Q164.8662 36.2188 163.1006 36.2188 Q161.0225 36.2188 159.7412 34.9688 Q158.46 33.7031 158.46 31.7188 Q158.46 29.4219 159.835 28.1094 Q161.21 26.7812 163.5068 26.7812 Q165.1006 26.7812 165.8037 27.2031 L165.8037 29.5625 Q164.9443 28.9062 163.8662 28.9062 Q162.6787 28.9062 161.9756 29.6094 Q161.2725 30.2969 161.2725 31.5312 Q161.2725 32.7344 161.9443 33.4219 Q162.6162 34.0938 163.7725 34.0938 Q164.8193 34.0938 165.8037 33.4375 L165.8037 35.6719 ZM176.2715 36 L173.5059 36 L173.5059 30.8906 Q173.5059 28.9062 172.0527 28.9062 Q171.3184 28.9062 170.8652 29.4688 Q170.4121 30.0156 170.4121 30.8594 L170.4121 36 L167.6309 36 L167.6309 22.6719 L170.4121 22.6719 L170.4121 28.3281 L170.4434 28.3281 Q171.459 26.7812 173.209 26.7812 Q176.2715 26.7812 176.2715 30.4688 L176.2715 36 ZM179.874 25.5781 Q179.1709 25.5781 178.7178 25.1562 Q178.2646 24.7344 178.2646 24.1406 Q178.2646 23.5156 178.7178 23.125 Q179.1709 22.7188 179.874 22.7188 Q180.5771 22.7188 181.0146 23.125 Q181.4678 23.5156 181.4678 24.1406 Q181.4678 24.7656 181.0146 25.1719 Q180.5771 25.5781 179.874 25.5781 ZM181.249 36 L178.4678 36 L178.4678 27 L181.249 27 L181.249 36 ZM183.2705 35.5156 L183.2705 32.7031 Q184.0361 33.3438 184.9268 33.6719 Q185.833 33.9844 186.7393 33.9844 Q187.2861 33.9844 187.6768 33.8906 Q188.083 33.7969 188.3486 33.625 Q188.6143 33.4531 188.7393 33.2188 Q188.8799 32.9844 188.8799 32.7188 Q188.8799 32.3438 188.6611 32.0625 Q188.458 31.7656 188.083 31.5156 Q187.7236 31.2656 187.2236 31.0469 Q186.7236 30.8125 186.1455 30.5781 Q184.6768 29.9688 183.9424 29.0781 Q183.2236 28.1875 183.2236 26.9219 Q183.2236 25.9375 183.6143 25.2344 Q184.0049 24.5312 184.6924 24.0781 Q185.3799 23.6094 186.2705 23.4062 Q187.1611 23.1875 188.1611 23.1875 Q189.1455 23.1875 189.9111 23.3125 Q190.6768 23.4219 191.3174 23.6719 L191.3174 26.2969 Q191.0049 26.0781 190.6299 25.9219 Q190.2549 25.75 189.8486 25.6406 Q189.458 25.5156 189.0674 25.4688 Q188.6768 25.4219 188.333 25.4219 Q187.8486 25.4219 187.4424 25.5156 Q187.0518 25.6094 186.7705 25.7812 Q186.5049 25.9375 186.3486 26.1719 Q186.208 26.4062 186.208 26.6875 Q186.208 27.0156 186.3643 27.2656 Q186.5361 27.5156 186.8486 27.7344 Q187.1611 27.9531 187.5986 28.1719 Q188.0361 28.3906 188.583 28.6094 Q189.3486 28.9375 189.9424 29.2969 Q190.5518 29.6406 190.9736 30.0938 Q191.4111 30.5469 191.6299 31.125 Q191.8643 31.6875 191.8643 32.4531 Q191.8643 33.5156 191.458 34.2344 Q191.0674 34.9375 190.3799 35.3906 Q189.6924 35.8281 188.7861 36.0156 Q187.8799 36.2188 186.8643 36.2188 Q185.833 36.2188 184.8955 36.0469 Q183.958 35.875 183.2705 35.5156 ZM202.2197 36 L199.4541 36 L199.4541 34.625 L199.4072 34.625 Q198.376 36.2188 196.6572 36.2188 Q193.5322 36.2188 193.5322 32.4375 L193.5322 27 L196.2979 27 L196.2979 32.1875 Q196.2979 34.0938 197.8135 34.0938 Q198.5635 34.0938 199.001 33.5781 Q199.4541 33.0469 199.4541 32.1562 L199.4541 27 L202.2197 27 L202.2197 36 ZM210.4375 29.5 Q209.9375 29.2344 209.2656 29.2344 Q208.3594 29.2344 207.8438 29.9062 Q207.3438 30.5625 207.3438 31.7031 L207.3438 36 L204.5625 36 L204.5625 27 L207.3438 27 L207.3438 28.6719 L207.375 28.6719 Q208.0312 26.8438 209.75 26.8438 Q210.1875 26.8438 210.4375 26.9531 L210.4375 29.5 ZM219.21 36 L216.585 36 L216.585 34.7031 L216.5537 34.7031 Q215.6475 36.2188 213.8662 36.2188 Q212.5537 36.2188 211.8037 35.4844 Q211.0537 34.7344 211.0537 33.5 Q211.0537 30.875 214.1631 30.4688 L216.6006 30.1406 Q216.6006 28.6719 215.0068 28.6719 Q213.3975 28.6719 211.9443 29.625 L211.9443 27.5312 Q212.5225 27.2344 213.5225 27.0156 Q214.5381 26.7812 215.3662 26.7812 Q219.21 26.7812 219.21 30.625 L219.21 36 ZM216.6006 32.3438 L216.6006 31.7344 L214.96 31.9531 Q213.6162 32.125 213.6162 33.1719 Q213.6162 33.6406 213.9443 33.9531 Q214.2725 34.25 214.835 34.25 Q215.6162 34.25 216.1006 33.7188 Q216.6006 33.1719 216.6006 32.3438 ZM230.0986 36 L227.333 36 L227.333 31 Q227.333 28.9062 225.833 28.9062 Q225.1143 28.9062 224.6455 29.4688 Q224.1924 30.0156 224.1924 30.8594 L224.1924 36 L221.4111 36 L221.4111 27 L224.1924 27 L224.1924 28.4219 L224.2236 28.4219 Q225.208 26.7812 227.1143 26.7812 Q230.0986 26.7812 230.0986 30.4844 L230.0986 36 ZM239.1133 35.6719 Q238.1758 36.2188 236.4102 36.2188 Q234.332 36.2188 233.0508 34.9688 Q231.7695 33.7031 231.7695 31.7188 Q231.7695 29.4219 233.1445 28.1094 Q234.5195 26.7812 236.8164 26.7812 Q238.4102 26.7812 239.1133 27.2031 L239.1133 29.5625 Q238.2539 28.9062 237.1758 28.9062 Q235.9883 28.9062 235.2852 29.6094 Q234.582 30.2969 234.582 31.5312 Q234.582 32.7344 235.2539 33.4219 Q235.9258 34.0938 237.082 34.0938 Q238.1289 34.0938 239.1133 33.4375 L239.1133 35.6719 ZM249.0186 32.2969 L243.1592 32.2969 Q243.2998 34.25 245.6279 34.25 Q247.1123 34.25 248.2373 33.5469 L248.2373 35.5469 Q246.9873 36.2188 244.9873 36.2188 Q242.8154 36.2188 241.6123 35.0156 Q240.4092 33.7969 240.4092 31.6406 Q240.4092 29.4062 241.7061 28.0938 Q243.0029 26.7812 244.9092 26.7812 Q246.8779 26.7812 247.9404 27.9531 Q249.0186 29.125 249.0186 31.125 L249.0186 32.2969 ZM246.4561 30.5781 Q246.4561 28.6562 244.8779 28.6562 Q244.2217 28.6562 243.7217 29.2188 Q243.2373 29.7656 243.1279 30.5781 L246.4561 30.5781 ZM270.2695 36 L267.4727 36 L267.4727 28.4531 Q267.4727 27.2344 267.582 25.7656 L267.5039 25.7656 Q267.2852 26.9219 267.1133 27.4375 L264.1602 36 L261.832 36 L258.832 27.5156 Q258.707 27.1719 258.4414 25.7656 L258.3633 25.7656 Q258.4727 27.625 258.4727 29.0312 L258.4727 36 L255.9102 36 L255.9102 23.3906 L260.0664 23.3906 L262.6445 30.8594 Q262.957 31.7656 263.0977 32.6719 L263.1445 32.6719 Q263.3789 31.625 263.6445 30.8438 L266.2227 23.3906 L270.2695 23.3906 L270.2695 36 ZM277.1523 36.2188 Q274.9023 36.2188 273.6211 34.9688 Q272.3398 33.7031 272.3398 31.5312 Q272.3398 29.2969 273.668 28.0469 Q275.0117 26.7812 277.2773 26.7812 Q279.5273 26.7812 280.793 28.0469 Q282.0742 29.2969 282.0742 31.375 Q282.0742 33.625 280.7617 34.9219 Q279.4492 36.2188 277.1523 36.2188 ZM277.2305 28.9062 Q276.2461 28.9062 275.6992 29.5938 Q275.1523 30.2656 275.1523 31.5 Q275.1523 34.0938 277.2461 34.0938 Q279.2461 34.0938 279.2461 31.4219 Q279.2461 28.9062 277.2305 28.9062 ZM292.6719 36 L289.9062 36 L289.9062 34.7656 L289.8594 34.7656 Q288.9219 36.2188 287.0781 36.2188 Q285.3906 36.2188 284.3594 35.0312 Q283.3438 33.8438 283.3438 31.7031 Q283.3438 29.4688 284.4688 28.125 Q285.6094 26.7812 287.4375 26.7812 Q289.1875 26.7812 289.8594 28.0312 L289.9062 28.0312 L289.9062 22.6719 L292.6719 22.6719 L292.6719 36 ZM289.9531 31.625 L289.9531 30.9531 Q289.9531 30.0625 289.4375 29.4844 Q288.9375 28.9062 288.125 28.9062 Q287.1875 28.9062 286.6719 29.6406 Q286.1562 30.3594 286.1562 31.625 Q286.1562 32.8125 286.6562 33.4531 Q287.1562 34.0938 288.0469 34.0938 Q288.8906 34.0938 289.4219 33.4219 Q289.9531 32.7344 289.9531 31.625 ZM303.0977 32.2969 L297.2383 32.2969 Q297.3789 34.25 299.707 34.25 Q301.1914 34.25 302.3164 33.5469 L302.3164 35.5469 Q301.0664 36.2188 299.0664 36.2188 Q296.8945 36.2188 295.6914 35.0156 Q294.4883 33.7969 294.4883 31.6406 Q294.4883 29.4062 295.7852 28.0938 Q297.082 26.7812 298.9883 26.7812 Q300.957 26.7812 302.0195 27.9531 Q303.0977 29.125 303.0977 31.125 L303.0977 32.2969 ZM300.5352 30.5781 Q300.5352 28.6562 298.957 28.6562 Q298.3008 28.6562 297.8008 29.2188 Q297.3164 29.7656 297.207 30.5781 L300.5352 30.5781 ZM307.5391 36 L304.7578 36 L304.7578 22.6719 L307.5391 22.6719 L307.5391 36 ZM311.2793 25.5781 Q310.5762 25.5781 310.123 25.1562 Q309.6699 24.7344 309.6699 24.1406 Q309.6699 23.5156 310.123 23.125 Q310.5762 22.7188 311.2793 22.7188 Q311.9824 22.7188 312.4199 23.125 Q312.873 23.5156 312.873 24.1406 Q312.873 24.7656 312.4199 25.1719 Q311.9824 25.5781 311.2793 25.5781 ZM312.6543 36 L309.873 36 L309.873 27 L312.6543 27 L312.6543 36 ZM323.6758 36 L320.9102 36 L320.9102 31 Q320.9102 28.9062 319.4102 28.9062 Q318.6914 28.9062 318.2227 29.4688 Q317.7695 30.0156 317.7695 30.8594 L317.7695 36 L314.9883 36 L314.9883 27 L317.7695 27 L317.7695 28.4219 L317.8008 28.4219 Q318.7852 26.7812 320.6914 26.7812 Q323.6758 26.7812 323.6758 30.4844 L323.6758 36 ZM334.7061 34.9688 Q334.7061 37.4844 333.2529 38.8594 Q331.7998 40.2344 329.0498 40.2344 Q327.2217 40.2344 326.1592 39.7031 L326.1592 37.375 Q327.5498 38.1875 328.9717 38.1875 Q330.3779 38.1875 331.1436 37.4375 Q331.9248 36.6875 331.9248 35.4219 L331.9248 34.7031 L331.8936 34.7031 Q330.9404 36.2188 329.0811 36.2188 Q327.3623 36.2188 326.3467 35.0156 Q325.3467 33.7969 325.3467 31.75 Q325.3467 29.4688 326.4717 28.125 Q327.5967 26.7812 329.4248 26.7812 Q331.0654 26.7812 331.8936 28.0469 L331.9248 28.0469 L331.9248 27 L334.7061 27 L334.7061 34.9688 ZM331.9561 31.6719 L331.9561 30.9688 Q331.9561 30.1094 331.4404 29.5156 Q330.9404 28.9062 330.1436 28.9062 Q329.2217 28.9062 328.6904 29.625 Q328.1592 30.3438 328.1592 31.6562 Q328.1592 32.7812 328.6592 33.4375 Q329.1592 34.0938 330.0342 34.0938 Q330.8936 34.0938 331.4248 33.4375 Q331.9561 32.7656 331.9561 31.6719 ZM345.0977 31.6562 L345.0977 36 L342.2539 36 L342.2539 23.3906 L346.707 23.3906 Q351.4727 23.3906 351.4727 27.4062 Q351.4727 29.3125 350.0977 30.4844 Q348.7383 31.6562 346.457 31.6562 L345.0977 31.6562 ZM345.0977 25.5781 L345.0977 29.5 L346.207 29.5 Q348.4883 29.5 348.4883 27.5156 Q348.4883 25.5781 346.207 25.5781 L345.0977 25.5781 ZM358.9199 29.5 Q358.4199 29.2344 357.748 29.2344 Q356.8418 29.2344 356.3262 29.9062 Q355.8262 30.5625 355.8262 31.7031 L355.8262 36 L353.0449 36 L353.0449 27 L355.8262 27 L355.8262 28.6719 L355.8574 28.6719 Q356.5137 26.8438 358.2324 26.8438 Q358.6699 26.8438 358.9199 26.9531 L358.9199 29.5 ZM367.6924 36 L365.0674 36 L365.0674 34.7031 L365.0361 34.7031 Q364.1299 36.2188 362.3486 36.2188 Q361.0361 36.2188 360.2861 35.4844 Q359.5361 34.7344 359.5361 33.5 Q359.5361 30.875 362.6455 30.4688 L365.083 30.1406 Q365.083 28.6719 363.4893 28.6719 Q361.8799 28.6719 360.4268 29.625 L360.4268 27.5312 Q361.0049 27.2344 362.0049 27.0156 Q363.0205 26.7812 363.8486 26.7812 Q367.6924 26.7812 367.6924 30.625 L367.6924 36 ZM365.083 32.3438 L365.083 31.7344 L363.4424 31.9531 Q362.0986 32.125 362.0986 33.1719 Q362.0986 33.6406 362.4268 33.9531 Q362.7549 34.25 363.3174 34.25 Q364.0986 34.25 364.583 33.7188 Q365.083 33.1719 365.083 32.3438 ZM376.7061 35.6719 Q375.7686 36.2188 374.0029 36.2188 Q371.9248 36.2188 370.6436 34.9688 Q369.3623 33.7031 369.3623 31.7188 Q369.3623 29.4219 370.7373 28.1094 Q372.1123 26.7812 374.4092 26.7812 Q376.0029 26.7812 376.7061 27.2031 L376.7061 29.5625 Q375.8467 28.9062 374.7686 28.9062 Q373.5811 28.9062 372.8779 29.6094 Q372.1748 30.2969 372.1748 31.5312 Q372.1748 32.7344 372.8467 33.4219 Q373.5186 34.0938 374.6748 34.0938 Q375.7217 34.0938 376.7061 33.4375 L376.7061 35.6719 ZM383.9707 35.8906 Q383.3613 36.2188 382.1113 36.2188 Q379.1738 36.2188 379.1738 33.1719 L379.1738 29.0469 L377.7207 29.0469 L377.7207 27 L379.1738 27 L379.1738 25.0625 L381.9551 24.2656 L381.9551 27 L383.9707 27 L383.9707 29.0469 L381.9551 29.0469 L381.9551 32.6875 Q381.9551 34.0938 383.0645 34.0938 Q383.502 34.0938 383.9707 33.8438 L383.9707 35.8906 ZM386.9443 25.5781 Q386.2412 25.5781 385.7881 25.1562 Q385.335 24.7344 385.335 24.1406 Q385.335 23.5156 385.7881 23.125 Q386.2412 22.7188 386.9443 22.7188 Q387.6475 22.7188 388.085 23.125 Q388.5381 23.5156 388.5381 24.1406 Q388.5381 24.7656 388.085 25.1719 Q387.6475 25.5781 386.9443 25.5781 ZM388.3193 36 L385.5381 36 L385.5381 27 L388.3193 27 L388.3193 36 ZM397.4658 35.6719 Q396.5283 36.2188 394.7627 36.2188 Q392.6846 36.2188 391.4033 34.9688 Q390.1221 33.7031 390.1221 31.7188 Q390.1221 29.4219 391.4971 28.1094 Q392.8721 26.7812 395.1689 26.7812 Q396.7627 26.7812 397.4658 27.2031 L397.4658 29.5625 Q396.6064 28.9062 395.5283 28.9062 Q394.3408 28.9062 393.6377 29.6094 Q392.9346 30.2969 392.9346 31.5312 Q392.9346 32.7344 393.6064 33.4219 Q394.2783 34.0938 395.4346 34.0938 Q396.4814 34.0938 397.4658 33.4375 L397.4658 35.6719 ZM407.3711 32.2969 L401.5117 32.2969 Q401.6523 34.25 403.9805 34.25 Q405.4648 34.25 406.5898 33.5469 L406.5898 35.5469 Q405.3398 36.2188 403.3398 36.2188 Q401.168 36.2188 399.9648 35.0156 Q398.7617 33.7969 398.7617 31.6406 Q398.7617 29.4062 400.0586 28.0938 Q401.3555 26.7812 403.2617 26.7812 Q405.2305 26.7812 406.293 27.9531 Q407.3711 29.125 407.3711 31.125 L407.3711 32.2969 ZM404.8086 30.5781 Q404.8086 28.6562 403.2305 28.6562 Q402.5742 28.6562 402.0742 29.2188 Q401.5898 29.7656 401.4805 30.5781 L404.8086 30.5781 Z"
                  clip-path="url(#clipPath2)" stroke="none"/>
            <path d="M514 238 L724 238 L724 284 L514 284 Z" fill-rule="evenodd"
                  clip-path="url(#clipPath3)" stroke="none"/>
        </g>
        <g text-rendering="optimizeLegibility" stroke-miterlimit="0"
           stroke-width="0" font-family="'Segoe UI'" stroke-linejoin="round">
            <path d="M524.4688 256 L520.1094 256 L520.1094 247.5938 L521.0938 247.5938 L521.0938 255.1094 L524.4688 255.1094 L524.4688 256 ZM529.9141 256 L528.9609 256 L528.9609 255.0625 L528.9297 255.0625 Q528.3047 256.1406 527.0859 256.1406 Q526.1953 256.1406 525.6797 255.6719 Q525.1797 255.1875 525.1797 254.4062 Q525.1797 252.7188 527.1641 252.4531 L528.9609 252.2031 Q528.9609 250.6719 527.7266 250.6719 Q526.6328 250.6719 525.7578 251.4062 L525.7578 250.4219 Q526.6484 249.8594 527.8047 249.8594 Q529.9141 249.8594 529.9141 252.0938 L529.9141 256 ZM528.9609 252.9688 L527.5078 253.1562 Q526.8359 253.25 526.4922 253.5 Q526.1641 253.7344 526.1641 254.3281 Q526.1641 254.7812 526.4766 255.0625 Q526.7891 255.3281 527.3047 255.3281 Q528.0234 255.3281 528.4922 254.8281 Q528.9609 254.3281 528.9609 253.5625 L528.9609 252.9688 ZM531.3633 255.7812 L531.3633 254.75 Q532.1445 255.3281 533.0977 255.3281 Q534.3633 255.3281 534.3633 254.4844 Q534.3633 254.25 534.2539 254.0781 Q534.1445 253.9062 533.957 253.7812 Q533.7695 253.6562 533.5195 253.5625 Q533.2695 253.4531 532.9883 253.3438 Q532.582 253.1875 532.2852 253.0312 Q531.9883 252.8594 531.7852 252.6562 Q531.582 252.4531 531.4727 252.2031 Q531.3789 251.9375 531.3789 251.5938 Q531.3789 251.1719 531.5664 250.8438 Q531.7695 250.5156 532.082 250.2969 Q532.4102 250.0781 532.8164 249.9688 Q533.2383 249.8594 533.6758 249.8594 Q534.457 249.8594 535.0664 250.125 L535.0664 251.0938 Q534.4102 250.6719 533.5508 250.6719 Q533.2695 250.6719 533.0508 250.7344 Q532.8477 250.7969 532.6914 250.9062 Q532.5352 251.0156 532.4414 251.1719 Q532.3633 251.3281 532.3633 251.5156 Q532.3633 251.75 532.4414 251.9062 Q532.5352 252.0625 532.6914 252.1875 Q532.8633 252.3125 533.0977 252.4062 Q533.332 252.5 533.6289 252.625 Q534.0195 252.7812 534.332 252.9375 Q534.6602 253.0938 534.8789 253.2969 Q535.0977 253.5 535.2227 253.7656 Q535.3477 254.0312 535.3477 254.3906 Q535.3477 254.8438 535.1445 255.1719 Q534.957 255.5 534.6289 255.7188 Q534.3008 255.9219 533.8633 256.0312 Q533.4414 256.1406 532.9727 256.1406 Q532.0508 256.1406 531.3633 255.7812 ZM539.5957 255.9375 Q539.2676 256.125 538.7051 256.125 Q537.127 256.125 537.127 254.375 L537.127 250.8125 L536.0957 250.8125 L536.0957 250 L537.127 250 L537.127 248.5312 L538.0957 248.2188 L538.0957 250 L539.5957 250 L539.5957 250.8125 L538.0957 250.8125 L538.0957 254.2031 Q538.0957 254.7969 538.2988 255.0625 Q538.502 255.3125 538.9707 255.3125 Q539.3457 255.3125 539.5957 255.125 L539.5957 255.9375 ZM550.4492 252.5938 Q550.4492 256.1406 547.2617 256.1406 Q544.1992 256.1406 544.1992 252.7344 L544.1992 247.5938 L545.1836 247.5938 L545.1836 252.6719 Q545.1836 255.25 547.3555 255.25 Q549.4648 255.25 549.4648 252.7656 L549.4648 247.5938 L550.4492 247.5938 L550.4492 252.5938 ZM553.3965 255.125 L553.3809 255.125 L553.3809 258.7656 L552.4121 258.7656 L552.4121 250 L553.3809 250 L553.3809 251.0469 L553.3965 251.0469 Q554.1152 249.8594 555.4746 249.8594 Q556.6309 249.8594 557.2871 250.6719 Q557.9434 251.4688 557.9434 252.8281 Q557.9434 254.3281 557.209 255.2344 Q556.4746 256.1406 555.1934 256.1406 Q554.0371 256.1406 553.3965 255.125 ZM553.3809 252.7188 L553.3809 253.5469 Q553.3809 254.2969 553.8652 254.8125 Q554.3496 255.3281 555.084 255.3281 Q555.959 255.3281 556.459 254.6719 Q556.959 254 556.959 252.8125 Q556.959 251.7969 556.4902 251.2344 Q556.0215 250.6719 555.2402 250.6719 Q554.3965 250.6719 553.8809 251.25 Q553.3809 251.8281 553.3809 252.7188 ZM564.5918 256 L563.6387 256 L563.6387 254.9844 L563.6074 254.9844 Q562.9355 256.1406 561.5449 256.1406 Q560.4199 256.1406 559.7324 255.3438 Q559.0605 254.5312 559.0605 253.1406 Q559.0605 251.6562 559.8105 250.7656 Q560.5605 249.8594 561.8105 249.8594 Q563.0449 249.8594 563.6074 250.8281 L563.6387 250.8281 L563.6387 247.1094 L564.5918 247.1094 L564.5918 256 ZM563.6387 253.2812 L563.6387 252.4062 Q563.6387 251.6719 563.1543 251.1719 Q562.6699 250.6719 561.9355 250.6719 Q561.0605 250.6719 560.5449 251.3125 Q560.0449 251.9531 560.0449 253.0938 Q560.0449 254.125 560.5293 254.7344 Q561.0137 255.3281 561.8262 255.3281 Q562.623 255.3281 563.123 254.75 Q563.6387 254.1719 563.6387 253.2812 ZM570.8301 256 L569.877 256 L569.877 255.0625 L569.8457 255.0625 Q569.2207 256.1406 568.002 256.1406 Q567.1113 256.1406 566.5957 255.6719 Q566.0957 255.1875 566.0957 254.4062 Q566.0957 252.7188 568.0801 252.4531 L569.877 252.2031 Q569.877 250.6719 568.6426 250.6719 Q567.5488 250.6719 566.6738 251.4062 L566.6738 250.4219 Q567.5645 249.8594 568.7207 249.8594 Q570.8301 249.8594 570.8301 252.0938 L570.8301 256 ZM569.877 252.9688 L568.4238 253.1562 Q567.752 253.25 567.4082 253.5 Q567.0801 253.7344 567.0801 254.3281 Q567.0801 254.7812 567.3926 255.0625 Q567.7051 255.3281 568.2207 255.3281 Q568.9395 255.3281 569.4082 254.8281 Q569.877 254.3281 569.877 253.5625 L569.877 252.9688 ZM575.4199 255.9375 Q575.0918 256.125 574.5293 256.125 Q572.9512 256.125 572.9512 254.375 L572.9512 250.8125 L571.9199 250.8125 L571.9199 250 L572.9512 250 L572.9512 248.5312 L573.9199 248.2188 L573.9199 250 L575.4199 250 L575.4199 250.8125 L573.9199 250.8125 L573.9199 254.2031 Q573.9199 254.7969 574.123 255.0625 Q574.3262 255.3125 574.7949 255.3125 Q575.1699 255.3125 575.4199 255.125 L575.4199 255.9375 ZM581.5332 253.2344 L577.2988 253.2344 Q577.3145 254.2344 577.8301 254.7812 Q578.3457 255.3281 579.252 255.3281 Q580.2676 255.3281 581.1113 254.6562 L581.1113 255.5625 Q580.3301 256.1406 579.0176 256.1406 Q577.752 256.1406 577.0176 255.3281 Q576.2988 254.5 576.2988 253.0156 Q576.2988 251.625 577.0957 250.75 Q577.8926 249.8594 579.0645 249.8594 Q580.2363 249.8594 580.877 250.625 Q581.5332 251.375 581.5332 252.7344 L581.5332 253.2344 ZM580.5488 252.4219 Q580.5488 251.5938 580.1426 251.1406 Q579.752 250.6719 579.0488 250.6719 Q578.3613 250.6719 577.8926 251.1562 Q577.4238 251.6406 577.3145 252.4219 L580.5488 252.4219 ZM588.1055 256 L587.1523 256 L587.1523 254.9844 L587.1211 254.9844 Q586.4492 256.1406 585.0586 256.1406 Q583.9336 256.1406 583.2461 255.3438 Q582.5742 254.5312 582.5742 253.1406 Q582.5742 251.6562 583.3242 250.7656 Q584.0742 249.8594 585.3242 249.8594 Q586.5586 249.8594 587.1211 250.8281 L587.1523 250.8281 L587.1523 247.1094 L588.1055 247.1094 L588.1055 256 ZM587.1523 253.2812 L587.1523 252.4062 Q587.1523 251.6719 586.668 251.1719 Q586.1836 250.6719 585.4492 250.6719 Q584.5742 250.6719 584.0586 251.3125 Q583.5586 251.9531 583.5586 253.0938 Q583.5586 254.125 584.043 254.7344 Q584.5273 255.3281 585.3398 255.3281 Q586.1367 255.3281 586.6367 254.75 Q587.1523 254.1719 587.1523 253.2812 ZM597.6309 256 L596.6777 256 L596.6777 255.0625 L596.6465 255.0625 Q596.0215 256.1406 594.8027 256.1406 Q593.9121 256.1406 593.3965 255.6719 Q592.8965 255.1875 592.8965 254.4062 Q592.8965 252.7188 594.8809 252.4531 L596.6777 252.2031 Q596.6777 250.6719 595.4434 250.6719 Q594.3496 250.6719 593.4746 251.4062 L593.4746 250.4219 Q594.3652 249.8594 595.5215 249.8594 Q597.6309 249.8594 597.6309 252.0938 L597.6309 256 ZM596.6777 252.9688 L595.2246 253.1562 Q594.5527 253.25 594.209 253.5 Q593.8809 253.7344 593.8809 254.3281 Q593.8809 254.7812 594.1934 255.0625 Q594.5059 255.3281 595.0215 255.3281 Q595.7402 255.3281 596.209 254.8281 Q596.6777 254.3281 596.6777 253.5625 L596.6777 252.9688 ZM602.2207 255.9375 Q601.8926 256.125 601.3301 256.125 Q599.752 256.125 599.752 254.375 L599.752 250.8125 L598.7207 250.8125 L598.7207 250 L599.752 250 L599.752 248.5312 L600.7207 248.2188 L600.7207 250 L602.2207 250 L602.2207 250.8125 L600.7207 250.8125 L600.7207 254.2031 Q600.7207 254.7969 600.9238 255.0625 Q601.127 255.3125 601.5957 255.3125 Q601.9707 255.3125 602.2207 255.125 L602.2207 255.9375 ZM603.8496 251.1719 Q603.5684 251.1719 603.3809 250.9844 Q603.1934 250.7812 603.1934 250.5156 Q603.1934 250.25 603.3809 250.0625 Q603.5684 249.875 603.8496 249.875 Q604.1152 249.875 604.3027 250.0625 Q604.5059 250.25 604.5059 250.5156 Q604.5059 250.7812 604.3027 250.9844 Q604.1152 251.1719 603.8496 251.1719 ZM603.8496 256.125 Q603.5684 256.125 603.3809 255.9375 Q603.1934 255.7344 603.1934 255.4688 Q603.1934 255.2031 603.3809 255.0156 Q603.5684 254.8125 603.8496 254.8125 Q604.1152 254.8125 604.3027 255.0156 Q604.5059 255.2031 604.5059 255.4688 Q604.5059 255.7344 604.3027 255.9375 Q604.1152 256.125 603.8496 256.125 ZM612.957 249.7969 Q612.957 249.4062 612.832 249.125 Q612.707 248.8438 612.5039 248.6562 Q612.3008 248.4531 612.0195 248.3594 Q611.7383 248.2656 611.4102 248.2656 Q611.1289 248.2656 610.8477 248.3438 Q610.582 248.4219 610.3164 248.5625 Q610.0664 248.6875 609.832 248.875 Q609.5977 249.0625 609.3945 249.2969 L609.3945 248.2656 Q609.8008 247.875 610.3008 247.6719 Q610.8008 247.4531 611.5195 247.4531 Q612.0352 247.4531 612.4727 247.6094 Q612.9102 247.75 613.2383 248.0469 Q613.5664 248.3281 613.7383 248.75 Q613.9258 249.1719 613.9258 249.7188 Q613.9258 250.2188 613.8164 250.625 Q613.707 251.0312 613.4727 251.3906 Q613.2383 251.7344 612.8789 252.0625 Q612.5352 252.3906 612.0664 252.7344 Q611.4727 253.1562 611.082 253.4531 Q610.707 253.75 610.4727 254.0156 Q610.2539 254.2812 610.1602 254.5469 Q610.0664 254.7969 610.0664 255.1406 L614.2539 255.1406 L614.2539 256 L609.0664 256 L609.0664 255.5781 Q609.0664 255.0469 609.1758 254.6406 Q609.3008 254.2188 609.5664 253.8594 Q609.832 253.4844 610.2695 253.125 Q610.707 252.75 611.3477 252.2812 Q611.8008 251.9531 612.0977 251.6562 Q612.4102 251.3594 612.5977 251.0625 Q612.7852 250.7656 612.8633 250.4531 Q612.957 250.1406 612.957 249.7969 ZM620.8789 251.7656 Q620.8789 252.8125 620.6758 253.6406 Q620.4883 254.4531 620.1289 255.0156 Q619.7695 255.5625 619.2383 255.8594 Q618.7227 256.1406 618.0508 256.1406 Q617.4258 256.1406 616.9258 255.875 Q616.4258 255.5938 616.082 255.0625 Q615.7539 254.5156 615.5664 253.75 Q615.3945 252.9688 615.3945 251.9688 Q615.3945 250.8594 615.582 250.0156 Q615.7695 249.1719 616.1289 248.6094 Q616.4883 248.0312 617.0195 247.75 Q617.5508 247.4531 618.2227 247.4531 Q620.8789 247.4531 620.8789 251.7656 ZM619.8945 251.8594 Q619.8945 248.2656 618.1758 248.2656 Q616.3789 248.2656 616.3789 251.9219 Q616.3789 255.3281 618.1445 255.3281 Q619.8945 255.3281 619.8945 251.8594 ZM625.8945 249.7969 Q625.8945 249.4062 625.7695 249.125 Q625.6445 248.8438 625.4414 248.6562 Q625.2383 248.4531 624.957 248.3594 Q624.6758 248.2656 624.3477 248.2656 Q624.0664 248.2656 623.7852 248.3438 Q623.5195 248.4219 623.2539 248.5625 Q623.0039 248.6875 622.7695 248.875 Q622.5352 249.0625 622.332 249.2969 L622.332 248.2656 Q622.7383 247.875 623.2383 247.6719 Q623.7383 247.4531 624.457 247.4531 Q624.9727 247.4531 625.4102 247.6094 Q625.8477 247.75 626.1758 248.0469 Q626.5039 248.3281 626.6758 248.75 Q626.8633 249.1719 626.8633 249.7188 Q626.8633 250.2188 626.7539 250.625 Q626.6445 251.0312 626.4102 251.3906 Q626.1758 251.7344 625.8164 252.0625 Q625.4727 252.3906 625.0039 252.7344 Q624.4102 253.1562 624.0195 253.4531 Q623.6445 253.75 623.4102 254.0156 Q623.1914 254.2812 623.0977 254.5469 Q623.0039 254.7969 623.0039 255.1406 L627.1914 255.1406 L627.1914 256 L622.0039 256 L622.0039 255.5781 Q622.0039 255.0469 622.1133 254.6406 Q622.2383 254.2188 622.5039 253.8594 Q622.7695 253.4844 623.207 253.125 Q623.6445 252.75 624.2852 252.2812 Q624.7383 251.9531 625.0352 251.6562 Q625.3477 251.3594 625.5352 251.0625 Q625.7227 250.7656 625.8008 250.4531 Q625.8945 250.1406 625.8945 249.7969 ZM633.4102 253.625 Q633.4102 254.1875 633.1914 254.6562 Q632.9883 255.125 632.5977 255.4531 Q632.207 255.7812 631.6602 255.9688 Q631.1133 256.1406 630.457 256.1406 Q629.2695 256.1406 628.5508 255.6875 L628.5508 254.6562 Q629.4102 255.3281 630.5039 255.3281 Q630.9414 255.3281 631.2852 255.2188 Q631.6445 255.1094 631.8945 254.9062 Q632.1602 254.6875 632.2852 254.3906 Q632.4258 254.0781 632.4258 253.7031 Q632.4258 252.0625 630.082 252.0625 L629.3945 252.0625 L629.3945 251.25 L630.0508 251.25 Q632.1289 251.25 632.1289 249.7031 Q632.1289 248.2656 630.5508 248.2656 Q629.6602 248.2656 628.8789 248.875 L628.8789 247.9375 Q629.6758 247.4531 630.7852 247.4531 Q631.3164 247.4531 631.7383 247.6094 Q632.1758 247.75 632.4727 248.0156 Q632.7852 248.2812 632.9414 248.6562 Q633.1133 249.0156 633.1133 249.4531 Q633.1133 251.125 631.4414 251.5938 L631.4414 251.6094 Q631.8633 251.6562 632.2227 251.8281 Q632.5977 251.9844 632.8477 252.25 Q633.1133 252.5 633.2539 252.8594 Q633.4102 253.2031 633.4102 253.625 ZM638.3477 253.0312 L635.1445 253.0312 L635.1445 252.2812 L638.3477 252.2812 L638.3477 253.0312 ZM645.084 251.7656 Q645.084 252.8125 644.8809 253.6406 Q644.6934 254.4531 644.334 255.0156 Q643.9746 255.5625 643.4434 255.8594 Q642.9277 256.1406 642.2559 256.1406 Q641.6309 256.1406 641.1309 255.875 Q640.6309 255.5938 640.2871 255.0625 Q639.959 254.5156 639.7715 253.75 Q639.5996 252.9688 639.5996 251.9688 Q639.5996 250.8594 639.7871 250.0156 Q639.9746 249.1719 640.334 248.6094 Q640.6934 248.0312 641.2246 247.75 Q641.7559 247.4531 642.4277 247.4531 Q645.084 247.4531 645.084 251.7656 ZM644.0996 251.8594 Q644.0996 248.2656 642.3809 248.2656 Q640.584 248.2656 640.584 251.9219 Q640.584 255.3281 642.3496 255.3281 Q644.0996 255.3281 644.0996 251.8594 ZM651.1465 253.625 Q651.1465 254.1875 650.9277 254.6562 Q650.7246 255.125 650.334 255.4531 Q649.9434 255.7812 649.3965 255.9688 Q648.8496 256.1406 648.1934 256.1406 Q647.0059 256.1406 646.2871 255.6875 L646.2871 254.6562 Q647.1465 255.3281 648.2402 255.3281 Q648.6777 255.3281 649.0215 255.2188 Q649.3809 255.1094 649.6309 254.9062 Q649.8965 254.6875 650.0215 254.3906 Q650.1621 254.0781 650.1621 253.7031 Q650.1621 252.0625 647.8184 252.0625 L647.1309 252.0625 L647.1309 251.25 L647.7871 251.25 Q649.8652 251.25 649.8652 249.7031 Q649.8652 248.2656 648.2871 248.2656 Q647.3965 248.2656 646.6152 248.875 L646.6152 247.9375 Q647.4121 247.4531 648.5215 247.4531 Q649.0527 247.4531 649.4746 247.6094 Q649.9121 247.75 650.209 248.0156 Q650.5215 248.2812 650.6777 248.6562 Q650.8496 249.0156 650.8496 249.4531 Q650.8496 251.125 649.1777 251.5938 L649.1777 251.6094 Q649.5996 251.6562 649.959 251.8281 Q650.334 251.9844 650.584 252.25 Q650.8496 252.5 650.9902 252.8594 Q651.1465 253.2031 651.1465 253.625 ZM656.084 253.0312 L652.8809 253.0312 L652.8809 252.2812 L656.084 252.2812 L656.084 253.0312 ZM662.4141 253.625 Q662.4141 254.1875 662.1953 254.6562 Q661.9922 255.125 661.6016 255.4531 Q661.2109 255.7812 660.6641 255.9688 Q660.1172 256.1406 659.4609 256.1406 Q658.2734 256.1406 657.5547 255.6875 L657.5547 254.6562 Q658.4141 255.3281 659.5078 255.3281 Q659.9453 255.3281 660.2891 255.2188 Q660.6484 255.1094 660.8984 254.9062 Q661.1641 254.6875 661.2891 254.3906 Q661.4297 254.0781 661.4297 253.7031 Q661.4297 252.0625 659.0859 252.0625 L658.3984 252.0625 L658.3984 251.25 L659.0547 251.25 Q661.1328 251.25 661.1328 249.7031 Q661.1328 248.2656 659.5547 248.2656 Q658.6641 248.2656 657.8828 248.875 L657.8828 247.9375 Q658.6797 247.4531 659.7891 247.4531 Q660.3203 247.4531 660.7422 247.6094 Q661.1797 247.75 661.4766 248.0156 Q661.7891 248.2812 661.9453 248.6562 Q662.1172 249.0156 662.1172 249.4531 Q662.1172 251.125 660.4453 251.5938 L660.4453 251.6094 Q660.8672 251.6562 661.2266 251.8281 Q661.6016 251.9844 661.8516 252.25 Q662.1172 252.5 662.2578 252.8594 Q662.4141 253.2031 662.4141 253.625 ZM667.5547 256 L666.5859 256 L666.5859 248.7344 Q666.4766 248.8438 666.2578 249 Q666.0547 249.1406 665.7734 249.2812 Q665.5078 249.4219 665.2109 249.5469 Q664.9297 249.6719 664.6484 249.7344 L664.6484 248.7656 Q664.9609 248.6719 665.3047 248.5312 Q665.6641 248.375 666.0078 248.1875 Q666.3516 248 666.6484 247.8125 Q666.9609 247.6094 667.1797 247.4062 L667.5547 247.4062 L667.5547 256 ZM671.6328 254.6562 L670.6953 257.5469 L670.0078 257.5469 L670.6953 254.6562 L671.6328 254.6562 ZM680.8438 256.1406 Q680.5156 256.1406 680.25 256.0469 Q680 255.9531 679.7812 255.7969 Q679.5625 255.625 679.3594 255.3906 Q679.1562 255.1406 678.9375 254.8281 Q678.7031 255.0781 678.3906 255.3125 Q678.0938 255.5469 677.7188 255.7344 Q677.3438 255.9219 676.8906 256.0312 Q676.4531 256.1406 675.9219 256.1406 Q675.2969 256.1406 674.7656 255.9844 Q674.2344 255.8125 673.8594 255.5156 Q673.4844 255.2031 673.2812 254.75 Q673.0781 254.2969 673.0781 253.7188 Q673.0781 252.8125 673.5781 252.1875 Q674.0938 251.5469 675.0312 251.1406 Q674.8438 251.0156 674.6719 250.8438 Q674.5 250.6719 674.3594 250.4531 Q674.2188 250.2344 674.125 249.9688 Q674.0469 249.6875 674.0469 249.375 Q674.0469 248.9219 674.2188 248.5625 Q674.3906 248.2031 674.6719 247.9531 Q674.9688 247.7031 675.3594 247.5781 Q675.7656 247.4531 676.2344 247.4531 Q676.6875 247.4531 677.0625 247.5781 Q677.4375 247.7031 677.7031 247.9375 Q677.9844 248.1719 678.1406 248.5 Q678.2969 248.8281 678.2969 249.2344 Q678.2969 249.9375 677.8906 250.4062 Q677.4844 250.875 676.6875 251.2031 Q677.0938 251.3594 677.4219 251.5938 Q677.75 251.8125 678.0312 252.0938 Q678.3125 252.375 678.5469 252.7031 Q678.7812 253.0156 679.0156 253.375 Q679.5 252.7031 679.7344 251.9062 Q679.9688 251.1094 679.9688 250.2344 Q679.9688 250.0156 679.9375 249.8281 Q679.9219 249.625 679.875 249.4375 L680.8125 249.4375 Q680.8594 249.625 680.8594 249.7969 Q680.875 249.9688 680.8906 250.2031 Q680.8906 250.75 680.7656 251.2969 Q680.6562 251.8281 680.4688 252.3281 Q680.2812 252.8281 680.0312 253.2969 Q679.7812 253.75 679.5156 254.125 Q679.7188 254.4062 679.8906 254.625 Q680.0625 254.8281 680.2344 254.9688 Q680.4062 255.1094 680.5781 255.1875 Q680.7656 255.25 681 255.25 Q681.1875 255.25 681.3594 255.2031 Q681.5469 255.1562 681.7344 255.0781 L681.7344 255.9688 Q681.5312 256.0469 681.2969 256.0938 Q681.0625 256.1406 680.8438 256.1406 ZM675.9219 255.2969 Q676.375 255.2969 676.75 255.2031 Q677.125 255.1094 677.4375 254.9531 Q677.75 254.7812 678 254.5781 Q678.2656 254.3594 678.4844 254.125 Q678.125 253.5625 677.8125 253.1719 Q677.5156 252.7812 677.2031 252.5 Q676.9062 252.2031 676.5469 252 Q676.2031 251.7969 675.75 251.6094 Q675.375 251.7656 675.0625 251.9531 Q674.7656 252.125 674.5312 252.375 Q674.3125 252.6094 674.1719 252.9375 Q674.0469 253.25 674.0469 253.6875 Q674.0469 254.0781 674.1875 254.3906 Q674.3438 254.6875 674.5938 254.8906 Q674.8594 255.0938 675.1875 255.2031 Q675.5312 255.2969 675.9219 255.2969 ZM677.3906 249.3125 Q677.3906 249.0312 677.2812 248.8281 Q677.1719 248.6094 677 248.4844 Q676.8438 248.3438 676.6406 248.2812 Q676.4375 248.2188 676.2344 248.2188 Q675.6562 248.2188 675.3125 248.5312 Q674.9688 248.8438 674.9688 249.375 Q674.9688 249.625 675.0312 249.8438 Q675.1094 250.0469 675.2344 250.2344 Q675.375 250.4062 675.5469 250.5469 Q675.7344 250.6875 675.9219 250.7812 Q676.6719 250.5312 677.0312 250.1875 Q677.3906 249.8438 677.3906 249.3125 ZM688.8066 249.9531 L688.6816 250.5781 L687.1504 250.5781 L686.7754 252.3281 L688.4316 252.3281 L688.2598 252.9531 L686.6504 252.9531 L686.1348 255.2812 L685.4004 255.2812 L685.9004 252.9531 L684.4473 252.9531 L683.9473 255.2812 L683.2129 255.2812 L683.7129 252.9531 L682.166 252.9531 L682.291 252.3281 L683.8379 252.3281 L684.1973 250.5781 L682.5723 250.5781 L682.6973 249.9531 L684.3223 249.9531 L684.8223 247.5938 L685.5566 247.5938 L685.0566 249.9531 L686.541 249.9531 L687.041 247.5938 L687.7598 247.5938 L687.2754 249.9531 L688.8066 249.9531 ZM686.416 250.5781 L684.9473 250.5781 L684.5566 252.3281 L686.041 252.3281 L686.416 250.5781 ZM694.4277 250 L692.4121 253.0312 L694.3965 256 L693.2715 256 L692.0996 254.0469 Q691.9746 253.875 691.834 253.5938 L691.8027 253.5938 Q691.7715 253.6562 691.5371 254.0469 L690.334 256 L689.2246 256 L691.2715 253.0625 L689.3027 250 L690.4277 250 L691.584 252.0469 Q691.7246 252.2812 691.834 252.5156 L691.8652 252.5156 L693.3652 250 L694.4277 250 ZM695.6855 256 L695.6855 247.5938 L697.998 247.5938 Q702.4355 247.5938 702.4355 251.6875 Q702.4355 253.6406 701.2012 254.8281 Q699.9668 256 697.9043 256 L695.6855 256 ZM696.6699 248.4844 L696.6699 255.1094 L697.9199 255.1094 Q699.5762 255.1094 700.4824 254.2344 Q701.4043 253.3438 701.4043 251.7188 Q701.4043 248.4844 697.9824 248.4844 L696.6699 248.4844 ZM704.3184 251.1719 Q704.0371 251.1719 703.8496 250.9844 Q703.6621 250.7812 703.6621 250.5156 Q703.6621 250.25 703.8496 250.0625 Q704.0371 249.875 704.3184 249.875 Q704.584 249.875 704.7715 250.0625 Q704.9746 250.25 704.9746 250.5156 Q704.9746 250.7812 704.7715 250.9844 Q704.584 251.1719 704.3184 251.1719 ZM704.8496 254.6562 L703.9121 257.5469 L703.2246 257.5469 L703.9121 254.6562 L704.8496 254.6562 Z"
                  stroke="none" clip-path="url(#clipPath4)"/>
            <path d="M527.4688 271.1406 Q527.1406 271.1406 526.875 271.0469 Q526.625 270.9531 526.4062 270.7969 Q526.1875 270.625 525.9844 270.3906 Q525.7812 270.1406 525.5625 269.8281 Q525.3281 270.0781 525.0156 270.3125 Q524.7188 270.5469 524.3438 270.7344 Q523.9688 270.9219 523.5156 271.0312 Q523.0781 271.1406 522.5469 271.1406 Q521.9219 271.1406 521.3906 270.9844 Q520.8594 270.8125 520.4844 270.5156 Q520.1094 270.2031 519.9062 269.75 Q519.7031 269.2969 519.7031 268.7188 Q519.7031 267.8125 520.2031 267.1875 Q520.7188 266.5469 521.6562 266.1406 Q521.4688 266.0156 521.2969 265.8438 Q521.125 265.6719 520.9844 265.4531 Q520.8438 265.2344 520.75 264.9688 Q520.6719 264.6875 520.6719 264.375 Q520.6719 263.9219 520.8438 263.5625 Q521.0156 263.2031 521.2969 262.9531 Q521.5938 262.7031 521.9844 262.5781 Q522.3906 262.4531 522.8594 262.4531 Q523.3125 262.4531 523.6875 262.5781 Q524.0625 262.7031 524.3281 262.9375 Q524.6094 263.1719 524.7656 263.5 Q524.9219 263.8281 524.9219 264.2344 Q524.9219 264.9375 524.5156 265.4062 Q524.1094 265.875 523.3125 266.2031 Q523.7188 266.3594 524.0469 266.5938 Q524.375 266.8125 524.6562 267.0938 Q524.9375 267.375 525.1719 267.7031 Q525.4062 268.0156 525.6406 268.375 Q526.125 267.7031 526.3594 266.9062 Q526.5938 266.1094 526.5938 265.2344 Q526.5938 265.0156 526.5625 264.8281 Q526.5469 264.625 526.5 264.4375 L527.4375 264.4375 Q527.4844 264.625 527.4844 264.7969 Q527.5 264.9688 527.5156 265.2031 Q527.5156 265.75 527.3906 266.2969 Q527.2812 266.8281 527.0938 267.3281 Q526.9062 267.8281 526.6562 268.2969 Q526.4062 268.75 526.1406 269.125 Q526.3438 269.4062 526.5156 269.625 Q526.6875 269.8281 526.8594 269.9688 Q527.0312 270.1094 527.2031 270.1875 Q527.3906 270.25 527.625 270.25 Q527.8125 270.25 527.9844 270.2031 Q528.1719 270.1562 528.3594 270.0781 L528.3594 270.9688 Q528.1562 271.0469 527.9219 271.0938 Q527.6875 271.1406 527.4688 271.1406 ZM522.5469 270.2969 Q523 270.2969 523.375 270.2031 Q523.75 270.1094 524.0625 269.9531 Q524.375 269.7812 524.625 269.5781 Q524.8906 269.3594 525.1094 269.125 Q524.75 268.5625 524.4375 268.1719 Q524.1406 267.7812 523.8281 267.5 Q523.5312 267.2031 523.1719 267 Q522.8281 266.7969 522.375 266.6094 Q522 266.7656 521.6875 266.9531 Q521.3906 267.125 521.1562 267.375 Q520.9375 267.6094 520.7969 267.9375 Q520.6719 268.25 520.6719 268.6875 Q520.6719 269.0781 520.8125 269.3906 Q520.9688 269.6875 521.2188 269.8906 Q521.4844 270.0938 521.8125 270.2031 Q522.1562 270.2969 522.5469 270.2969 ZM524.0156 264.3125 Q524.0156 264.0312 523.9062 263.8281 Q523.7969 263.6094 523.625 263.4844 Q523.4688 263.3438 523.2656 263.2812 Q523.0625 263.2188 522.8594 263.2188 Q522.2812 263.2188 521.9375 263.5312 Q521.5938 263.8438 521.5938 264.375 Q521.5938 264.625 521.6562 264.8438 Q521.7344 265.0469 521.8594 265.2344 Q522 265.4062 522.1719 265.5469 Q522.3594 265.6875 522.5469 265.7812 Q523.2969 265.5312 523.6562 265.1875 Q524.0156 264.8438 524.0156 264.3125 ZM535.4316 264.9531 L535.3066 265.5781 L533.7754 265.5781 L533.4004 267.3281 L535.0566 267.3281 L534.8848 267.9531 L533.2754 267.9531 L532.7598 270.2812 L532.0254 270.2812 L532.5254 267.9531 L531.0723 267.9531 L530.5723 270.2812 L529.8379 270.2812 L530.3379 267.9531 L528.791 267.9531 L528.916 267.3281 L530.4629 267.3281 L530.8223 265.5781 L529.1973 265.5781 L529.3223 264.9531 L530.9473 264.9531 L531.4473 262.5938 L532.1816 262.5938 L531.6816 264.9531 L533.166 264.9531 L533.666 262.5938 L534.3848 262.5938 L533.9004 264.9531 L535.4316 264.9531 ZM533.041 265.5781 L531.5723 265.5781 L531.1816 267.3281 L532.666 267.3281 L533.041 265.5781 ZM541.0527 265 L539.0371 268.0312 L541.0215 271 L539.8965 271 L538.7246 269.0469 Q538.5996 268.875 538.459 268.5938 L538.4277 268.5938 Q538.3965 268.6562 538.1621 269.0469 L536.959 271 L535.8496 271 L537.8965 268.0625 L535.9277 265 L537.0527 265 L538.209 267.0469 Q538.3496 267.2812 538.459 267.5156 L538.4902 267.5156 L539.9902 265 L541.0527 265 ZM548.8105 271 L547.7168 271 L546.8262 268.6406 L543.2637 268.6406 L542.4199 271 L541.3262 271 L544.5605 262.5938 L545.5762 262.5938 L548.8105 271 ZM546.498 267.7656 L545.1855 264.1719 Q545.123 264 545.0605 263.6094 L545.0293 263.6094 Q544.9824 263.9688 544.9043 264.1719 L543.5918 267.7656 L546.498 267.7656 ZM550.2695 266.1719 Q549.9883 266.1719 549.8008 265.9844 Q549.6133 265.7812 549.6133 265.5156 Q549.6133 265.25 549.8008 265.0625 Q549.9883 264.875 550.2695 264.875 Q550.5352 264.875 550.7227 265.0625 Q550.9258 265.25 550.9258 265.5156 Q550.9258 265.7812 550.7227 265.9844 Q550.5352 266.1719 550.2695 266.1719 ZM550.8008 269.6562 L549.8633 272.5469 L549.1758 272.5469 L549.8633 269.6562 L550.8008 269.6562 ZM557.0117 271 L552.6523 271 L552.6523 262.5938 L553.6367 262.5938 L553.6367 270.1094 L557.0117 270.1094 L557.0117 271 ZM562.457 271 L561.5039 271 L561.5039 270.0625 L561.4727 270.0625 Q560.8477 271.1406 559.6289 271.1406 Q558.7383 271.1406 558.2227 270.6719 Q557.7227 270.1875 557.7227 269.4062 Q557.7227 267.7188 559.707 267.4531 L561.5039 267.2031 Q561.5039 265.6719 560.2695 265.6719 Q559.1758 265.6719 558.3008 266.4062 L558.3008 265.4219 Q559.1914 264.8594 560.3477 264.8594 Q562.457 264.8594 562.457 267.0938 L562.457 271 ZM561.5039 267.9688 L560.0508 268.1562 Q559.3789 268.25 559.0352 268.5 Q558.707 268.7344 558.707 269.3281 Q558.707 269.7812 559.0195 270.0625 Q559.332 270.3281 559.8477 270.3281 Q560.5664 270.3281 561.0352 269.8281 Q561.5039 269.3281 561.5039 268.5625 L561.5039 267.9688 ZM563.9062 270.7812 L563.9062 269.75 Q564.6875 270.3281 565.6406 270.3281 Q566.9062 270.3281 566.9062 269.4844 Q566.9062 269.25 566.7969 269.0781 Q566.6875 268.9062 566.5 268.7812 Q566.3125 268.6562 566.0625 268.5625 Q565.8125 268.4531 565.5312 268.3438 Q565.125 268.1875 564.8281 268.0312 Q564.5312 267.8594 564.3281 267.6562 Q564.125 267.4531 564.0156 267.2031 Q563.9219 266.9375 563.9219 266.5938 Q563.9219 266.1719 564.1094 265.8438 Q564.3125 265.5156 564.625 265.2969 Q564.9531 265.0781 565.3594 264.9688 Q565.7812 264.8594 566.2188 264.8594 Q567 264.8594 567.6094 265.125 L567.6094 266.0938 Q566.9531 265.6719 566.0938 265.6719 Q565.8125 265.6719 565.5938 265.7344 Q565.3906 265.7969 565.2344 265.9062 Q565.0781 266.0156 564.9844 266.1719 Q564.9062 266.3281 564.9062 266.5156 Q564.9062 266.75 564.9844 266.9062 Q565.0781 267.0625 565.2344 267.1875 Q565.4062 267.3125 565.6406 267.4062 Q565.875 267.5 566.1719 267.625 Q566.5625 267.7812 566.875 267.9375 Q567.2031 268.0938 567.4219 268.2969 Q567.6406 268.5 567.7656 268.7656 Q567.8906 269.0312 567.8906 269.3906 Q567.8906 269.8438 567.6875 270.1719 Q567.5 270.5 567.1719 270.7188 Q566.8438 270.9219 566.4062 271.0312 Q565.9844 271.1406 565.5156 271.1406 Q564.5938 271.1406 563.9062 270.7812 ZM572.1387 270.9375 Q571.8105 271.125 571.248 271.125 Q569.6699 271.125 569.6699 269.375 L569.6699 265.8125 L568.6387 265.8125 L568.6387 265 L569.6699 265 L569.6699 263.5312 L570.6387 263.2188 L570.6387 265 L572.1387 265 L572.1387 265.8125 L570.6387 265.8125 L570.6387 269.2031 Q570.6387 269.7969 570.8418 270.0625 Q571.0449 270.3125 571.5137 270.3125 Q571.8887 270.3125 572.1387 270.125 L572.1387 270.9375 ZM582.9922 267.5938 Q582.9922 271.1406 579.8047 271.1406 Q576.7422 271.1406 576.7422 267.7344 L576.7422 262.5938 L577.7266 262.5938 L577.7266 267.6719 Q577.7266 270.25 579.8984 270.25 Q582.0078 270.25 582.0078 267.7656 L582.0078 262.5938 L582.9922 262.5938 L582.9922 267.5938 ZM585.9395 270.125 L585.9238 270.125 L585.9238 273.7656 L584.9551 273.7656 L584.9551 265 L585.9238 265 L585.9238 266.0469 L585.9395 266.0469 Q586.6582 264.8594 588.0176 264.8594 Q589.1738 264.8594 589.8301 265.6719 Q590.4863 266.4688 590.4863 267.8281 Q590.4863 269.3281 589.752 270.2344 Q589.0176 271.1406 587.7363 271.1406 Q586.5801 271.1406 585.9395 270.125 ZM585.9238 267.7188 L585.9238 268.5469 Q585.9238 269.2969 586.4082 269.8125 Q586.8926 270.3281 587.627 270.3281 Q588.502 270.3281 589.002 269.6719 Q589.502 269 589.502 267.8125 Q589.502 266.7969 589.0332 266.2344 Q588.5645 265.6719 587.7832 265.6719 Q586.9395 265.6719 586.4238 266.25 Q585.9238 266.8281 585.9238 267.7188 ZM597.1348 271 L596.1816 271 L596.1816 269.9844 L596.1504 269.9844 Q595.4785 271.1406 594.0879 271.1406 Q592.9629 271.1406 592.2754 270.3438 Q591.6035 269.5312 591.6035 268.1406 Q591.6035 266.6562 592.3535 265.7656 Q593.1035 264.8594 594.3535 264.8594 Q595.5879 264.8594 596.1504 265.8281 L596.1816 265.8281 L596.1816 262.1094 L597.1348 262.1094 L597.1348 271 ZM596.1816 268.2812 L596.1816 267.4062 Q596.1816 266.6719 595.6973 266.1719 Q595.2129 265.6719 594.4785 265.6719 Q593.6035 265.6719 593.0879 266.3125 Q592.5879 266.9531 592.5879 268.0938 Q592.5879 269.125 593.0723 269.7344 Q593.5566 270.3281 594.3691 270.3281 Q595.166 270.3281 595.666 269.75 Q596.1816 269.1719 596.1816 268.2812 ZM603.373 271 L602.4199 271 L602.4199 270.0625 L602.3887 270.0625 Q601.7637 271.1406 600.5449 271.1406 Q599.6543 271.1406 599.1387 270.6719 Q598.6387 270.1875 598.6387 269.4062 Q598.6387 267.7188 600.623 267.4531 L602.4199 267.2031 Q602.4199 265.6719 601.1855 265.6719 Q600.0918 265.6719 599.2168 266.4062 L599.2168 265.4219 Q600.1074 264.8594 601.2637 264.8594 Q603.373 264.8594 603.373 267.0938 L603.373 271 ZM602.4199 267.9688 L600.9668 268.1562 Q600.2949 268.25 599.9512 268.5 Q599.623 268.7344 599.623 269.3281 Q599.623 269.7812 599.9355 270.0625 Q600.248 270.3281 600.7637 270.3281 Q601.4824 270.3281 601.9512 269.8281 Q602.4199 269.3281 602.4199 268.5625 L602.4199 267.9688 ZM607.9629 270.9375 Q607.6348 271.125 607.0723 271.125 Q605.4941 271.125 605.4941 269.375 L605.4941 265.8125 L604.4629 265.8125 L604.4629 265 L605.4941 265 L605.4941 263.5312 L606.4629 263.2188 L606.4629 265 L607.9629 265 L607.9629 265.8125 L606.4629 265.8125 L606.4629 269.2031 Q606.4629 269.7969 606.666 270.0625 Q606.8691 270.3125 607.3379 270.3125 Q607.7129 270.3125 607.9629 270.125 L607.9629 270.9375 ZM614.0762 268.2344 L609.8418 268.2344 Q609.8574 269.2344 610.373 269.7812 Q610.8887 270.3281 611.7949 270.3281 Q612.8105 270.3281 613.6543 269.6562 L613.6543 270.5625 Q612.873 271.1406 611.5605 271.1406 Q610.2949 271.1406 609.5605 270.3281 Q608.8418 269.5 608.8418 268.0156 Q608.8418 266.625 609.6387 265.75 Q610.4355 264.8594 611.6074 264.8594 Q612.7793 264.8594 613.4199 265.625 Q614.0762 266.375 614.0762 267.7344 L614.0762 268.2344 ZM613.0918 267.4219 Q613.0918 266.5938 612.6855 266.1406 Q612.2949 265.6719 611.5918 265.6719 Q610.9043 265.6719 610.4355 266.1562 Q609.9668 266.6406 609.8574 267.4219 L613.0918 267.4219 ZM620.6484 271 L619.6953 271 L619.6953 269.9844 L619.6641 269.9844 Q618.9922 271.1406 617.6016 271.1406 Q616.4766 271.1406 615.7891 270.3438 Q615.1172 269.5312 615.1172 268.1406 Q615.1172 266.6562 615.8672 265.7656 Q616.6172 264.8594 617.8672 264.8594 Q619.1016 264.8594 619.6641 265.8281 L619.6953 265.8281 L619.6953 262.1094 L620.6484 262.1094 L620.6484 271 ZM619.6953 268.2812 L619.6953 267.4062 Q619.6953 266.6719 619.2109 266.1719 Q618.7266 265.6719 617.9922 265.6719 Q617.1172 265.6719 616.6016 266.3125 Q616.1016 266.9531 616.1016 268.0938 Q616.1016 269.125 616.5859 269.7344 Q617.0703 270.3281 617.8828 270.3281 Q618.6797 270.3281 619.1797 269.75 Q619.6953 269.1719 619.6953 268.2812 ZM626.8613 270.125 L626.8457 270.125 L626.8457 271 L625.877 271 L625.877 262.1094 L626.8457 262.1094 L626.8457 266.0469 L626.8613 266.0469 Q627.5801 264.8594 628.9395 264.8594 Q630.0957 264.8594 630.752 265.6719 Q631.4082 266.4688 631.4082 267.8281 Q631.4082 269.3281 630.6738 270.2344 Q629.9395 271.1406 628.6582 271.1406 Q627.4707 271.1406 626.8613 270.125 ZM626.8457 267.7188 L626.8457 268.5469 Q626.8457 269.2969 627.3301 269.8125 Q627.8145 270.3281 628.5488 270.3281 Q629.4238 270.3281 629.9238 269.6719 Q630.4238 269 630.4238 267.8125 Q630.4238 266.7969 629.9551 266.2344 Q629.4863 265.6719 628.7051 265.6719 Q627.8613 265.6719 627.3457 266.25 Q626.8457 266.8281 626.8457 267.7188 ZM637.7129 265 L634.9473 271.9688 Q634.2129 273.8281 632.8848 273.8281 Q632.5098 273.8281 632.2441 273.75 L632.2441 272.8906 Q632.5566 273 632.8223 273 Q633.541 273 633.916 272.125 L634.3848 270.9844 L632.041 265 L633.1191 265 L634.7285 269.6094 Q634.7598 269.7031 634.8535 270.0781 L634.9004 270.0781 Q634.916 269.9375 635.0098 269.625 L636.7129 265 L637.7129 265 ZM639.082 266.1719 Q638.8008 266.1719 638.6133 265.9844 Q638.4258 265.7812 638.4258 265.5156 Q638.4258 265.25 638.6133 265.0625 Q638.8008 264.875 639.082 264.875 Q639.3477 264.875 639.5352 265.0625 Q639.7383 265.25 639.7383 265.5156 Q639.7383 265.7812 639.5352 265.9844 Q639.3477 266.1719 639.082 266.1719 ZM639.082 271.125 Q638.8008 271.125 638.6133 270.9375 Q638.4258 270.7344 638.4258 270.4688 Q638.4258 270.2031 638.6133 270.0156 Q638.8008 269.8125 639.082 269.8125 Q639.3477 269.8125 639.5352 270.0156 Q639.7383 270.2031 639.7383 270.4688 Q639.7383 270.7344 639.5352 270.9375 Q639.3477 271.125 639.082 271.125 ZM650.5645 271 L649.3613 271 L647.4238 267.7812 Q647.3457 267.6406 647.2363 267.3594 L647.2051 267.3594 Q647.1582 267.5 647.0176 267.7812 L645.0176 271 L643.8145 271 L646.627 266.7812 L644.0332 262.5938 L645.2363 262.5938 L646.9551 265.5469 Q647.127 265.8438 647.252 266.1406 L647.2832 266.1406 Q647.4707 265.75 647.6113 265.5312 L649.3926 262.5938 L650.5332 262.5938 L647.877 266.7656 L650.5645 271 ZM652.2051 263.4688 Q651.9395 263.4688 651.752 263.2969 Q651.5801 263.125 651.5801 262.8594 Q651.5801 262.5781 651.752 262.4062 Q651.9395 262.2344 652.2051 262.2344 Q652.4707 262.2344 652.6426 262.4062 Q652.8301 262.5781 652.8301 262.8594 Q652.8301 263.1094 652.6426 263.2969 Q652.4707 263.4688 652.2051 263.4688 ZM652.6738 271 L651.7051 271 L651.7051 265 L652.6738 265 L652.6738 271 ZM658.9082 271 L657.9551 271 L657.9551 270.0625 L657.9238 270.0625 Q657.2988 271.1406 656.0801 271.1406 Q655.1895 271.1406 654.6738 270.6719 Q654.1738 270.1875 654.1738 269.4062 Q654.1738 267.7188 656.1582 267.4531 L657.9551 267.2031 Q657.9551 265.6719 656.7207 265.6719 Q655.627 265.6719 654.752 266.4062 L654.752 265.4219 Q655.6426 264.8594 656.7988 264.8594 Q658.9082 264.8594 658.9082 267.0938 L658.9082 271 ZM657.9551 267.9688 L656.502 268.1562 Q655.8301 268.25 655.4863 268.5 Q655.1582 268.7344 655.1582 269.3281 Q655.1582 269.7812 655.4707 270.0625 Q655.7832 270.3281 656.2988 270.3281 Q657.0176 270.3281 657.4863 269.8281 Q657.9551 269.3281 657.9551 268.5625 L657.9551 267.9688 ZM663.2324 271.1406 Q661.9043 271.1406 661.1074 270.2969 Q660.3105 269.4531 660.3105 268.0625 Q660.3105 266.5625 661.1387 265.7188 Q661.9668 264.8594 663.373 264.8594 Q664.7168 264.8594 665.4668 265.6875 Q666.2168 266.5156 666.2168 267.9688 Q666.2168 269.4062 665.4043 270.2812 Q664.5918 271.1406 663.2324 271.1406 ZM663.2949 265.6719 Q662.373 265.6719 661.8262 266.2969 Q661.2949 266.9219 661.2949 268.0312 Q661.2949 269.0938 661.8418 269.7188 Q662.3887 270.3281 663.2949 270.3281 Q664.2324 270.3281 664.7324 269.7344 Q665.2324 269.125 665.2324 268.0156 Q665.2324 266.8906 664.7324 266.2812 Q664.2324 265.6719 663.2949 265.6719 ZM672.873 273.7656 L671.9199 273.7656 L671.9199 269.9688 L671.8887 269.9688 Q671.2637 271.1406 669.8418 271.1406 Q668.7012 271.1406 668.0137 270.3438 Q667.3418 269.5312 667.3418 268.1406 Q667.3418 266.6406 668.0918 265.75 Q668.8418 264.8594 670.1074 264.8594 Q671.3418 264.8594 671.8887 265.8281 L671.9199 265.8281 L671.9199 265 L672.873 265 L672.873 273.7656 ZM671.9199 268.2969 L671.9199 267.4219 Q671.9199 266.6875 671.4355 266.1875 Q670.9512 265.6719 670.2012 265.6719 Q669.3418 265.6719 668.8262 266.3125 Q668.3262 266.9531 668.3262 268.1094 Q668.3262 269.1562 668.8105 269.75 Q669.2949 270.3281 670.0605 270.3281 Q670.9043 270.3281 671.4043 269.75 Q671.9199 269.1719 671.9199 268.2969 ZM675.3145 263.4688 Q675.0488 263.4688 674.8613 263.2969 Q674.6895 263.125 674.6895 262.8594 Q674.6895 262.5781 674.8613 262.4062 Q675.0488 262.2344 675.3145 262.2344 Q675.5801 262.2344 675.752 262.4062 Q675.9395 262.5781 675.9395 262.8594 Q675.9395 263.1094 675.752 263.2969 Q675.5801 263.4688 675.3145 263.4688 ZM675.7832 271 L674.8145 271 L674.8145 265 L675.7832 265 L675.7832 271 ZM686.6328 262.8281 L681.7109 270.1094 L686.5078 270.1094 L686.5078 271 L680.2266 271 L680.2266 270.7188 L685.1172 263.4844 L680.6328 263.4844 L680.6328 262.5938 L686.6328 262.5938 L686.6328 262.8281 ZM692.8359 271 L691.8828 271 L691.8828 267.5469 Q691.8828 265.6719 690.4766 265.6719 Q689.7734 265.6719 689.2891 266.2188 Q688.8203 266.75 688.8203 267.5938 L688.8203 271 L687.8516 271 L687.8516 262.1094 L688.8203 262.1094 L688.8203 266 L688.8359 266 Q689.5391 264.8594 690.8047 264.8594 Q692.8359 264.8594 692.8359 267.2969 L692.8359 271 ZM698.9395 271 L697.9863 271 L697.9863 270.0625 L697.9551 270.0625 Q697.3301 271.1406 696.1113 271.1406 Q695.2207 271.1406 694.7051 270.6719 Q694.2051 270.1875 694.2051 269.4062 Q694.2051 267.7188 696.1895 267.4531 L697.9863 267.2031 Q697.9863 265.6719 696.752 265.6719 Q695.6582 265.6719 694.7832 266.4062 L694.7832 265.4219 Q695.6738 264.8594 696.8301 264.8594 Q698.9395 264.8594 698.9395 267.0938 L698.9395 271 ZM697.9863 267.9688 L696.5332 268.1562 Q695.8613 268.25 695.5176 268.5 Q695.1895 268.7344 695.1895 269.3281 Q695.1895 269.7812 695.502 270.0625 Q695.8145 270.3281 696.3301 270.3281 Q697.0488 270.3281 697.5176 269.8281 Q697.9863 269.3281 697.9863 268.5625 L697.9863 267.9688 ZM703.2637 271.1406 Q701.9355 271.1406 701.1387 270.2969 Q700.3418 269.4531 700.3418 268.0625 Q700.3418 266.5625 701.1699 265.7188 Q701.998 264.8594 703.4043 264.8594 Q704.748 264.8594 705.498 265.6875 Q706.248 266.5156 706.248 267.9688 Q706.248 269.4062 705.4355 270.2812 Q704.623 271.1406 703.2637 271.1406 ZM703.3262 265.6719 Q702.4043 265.6719 701.8574 266.2969 Q701.3262 266.9219 701.3262 268.0312 Q701.3262 269.0938 701.873 269.7188 Q702.4199 270.3281 703.3262 270.3281 Q704.2637 270.3281 704.7637 269.7344 Q705.2637 269.125 705.2637 268.0156 Q705.2637 266.8906 704.7637 266.2812 Q704.2637 265.6719 703.3262 265.6719 Z"
                  clip-path="url(#clipPath4)" stroke="none"/>
            <rect x="70" y="82" clip-path="url(#clipPath5)"
                  fill="rgb(220,235,235)" width="119" height="54" stroke="none"/>
        </g>
        <g fill="rgb(154,164,164)" text-rendering="optimizeLegibility"
           font-family="'Segoe UI'" stroke-linecap="butt"
           stroke="rgb(154,164,164)">
            <rect fill="none" x="70" width="119" height="54" y="82"
                  clip-path="url(#clipPath5)"/>
            <rect x="171" y="88" clip-path="url(#clipPath5)"
                  fill="rgb(220,240,250)" width="5" height="5" stroke="none"/>
            <rect x="171" y="97" clip-path="url(#clipPath5)"
                  fill="rgb(220,240,250)" width="5" height="5" stroke="none"/>
            <rect x="171" y="88" clip-path="url(#clipPath5)" fill="none"
                  width="5" height="5" stroke="rgb(20,105,171)"/>
            <rect x="171" y="97" clip-path="url(#clipPath5)" fill="none"
                  width="5" height="5" stroke="rgb(20,105,171)"/>
            <rect x="179" y="94" clip-path="url(#clipPath5)" fill="none"
                  width="2" height="2" stroke="rgb(20,105,171)"/>
            <line clip-path="url(#clipPath5)" fill="none" x1="178" x2="184"
                  y1="90" y2="90" stroke="rgb(193,232,255)"/>
            <line clip-path="url(#clipPath5)" fill="none" x1="178" x2="184"
                  y1="91" y2="91" stroke="rgb(20,105,171)"/>
            <line clip-path="url(#clipPath5)" fill="none" x1="178" x2="184"
                  y1="99" y2="99" stroke="rgb(193,232,255)"/>
            <line clip-path="url(#clipPath5)" fill="none" x1="178" x2="184"
                  y1="100" y2="100" stroke="rgb(20,105,171)"/>
            <line clip-path="url(#clipPath5)" fill="none" x1="182" x2="184"
                  y1="95" y2="95" stroke="rgb(20,105,171)"/>
            <path fill="black"
                  d="M110.0938 95.8281 L110.0938 99 L109.1094 99 L109.1094 90.5938 L111.4062 90.5938 Q112.7656 90.5938 113.5 91.25 Q114.2344 91.9062 114.2344 93.1094 Q114.2344 94.2969 113.4062 95.0625 Q112.5938 95.8281 111.1875 95.8281 L110.0938 95.8281 ZM110.0938 91.4844 L110.0938 94.9375 L111.125 94.9375 Q112.1406 94.9375 112.6719 94.4688 Q113.2031 94 113.2031 93.1562 Q113.2031 91.4844 111.2344 91.4844 L110.0938 91.4844 ZM120.6738 99 L119.7207 99 L119.7207 95.5469 Q119.7207 93.6719 118.3145 93.6719 Q117.6113 93.6719 117.127 94.2188 Q116.6582 94.75 116.6582 95.5938 L116.6582 99 L115.6895 99 L115.6895 90.1094 L116.6582 90.1094 L116.6582 94 L116.6738 94 Q117.377 92.8594 118.6426 92.8594 Q120.6738 92.8594 120.6738 95.2969 L120.6738 99 ZM126.7773 99 L125.8242 99 L125.8242 98.0625 L125.793 98.0625 Q125.168 99.1406 123.9492 99.1406 Q123.0586 99.1406 122.543 98.6719 Q122.043 98.1875 122.043 97.4062 Q122.043 95.7188 124.0273 95.4531 L125.8242 95.2031 Q125.8242 93.6719 124.5898 93.6719 Q123.4961 93.6719 122.6211 94.4062 L122.6211 93.4219 Q123.5117 92.8594 124.668 92.8594 Q126.7773 92.8594 126.7773 95.0938 L126.7773 99 ZM125.8242 95.9688 L124.3711 96.1562 Q123.6992 96.25 123.3555 96.5 Q123.0273 96.7344 123.0273 97.3281 Q123.0273 97.7812 123.3398 98.0625 Q123.6523 98.3281 124.168 98.3281 Q124.8867 98.3281 125.3555 97.8281 Q125.8242 97.3281 125.8242 96.5625 L125.8242 95.9688 ZM128.2266 98.7812 L128.2266 97.75 Q129.0078 98.3281 129.9609 98.3281 Q131.2266 98.3281 131.2266 97.4844 Q131.2266 97.25 131.1172 97.0781 Q131.0078 96.9062 130.8203 96.7812 Q130.6328 96.6562 130.3828 96.5625 Q130.1328 96.4531 129.8516 96.3438 Q129.4453 96.1875 129.1484 96.0312 Q128.8516 95.8594 128.6484 95.6562 Q128.4453 95.4531 128.3359 95.2031 Q128.2422 94.9375 128.2422 94.5938 Q128.2422 94.1719 128.4297 93.8438 Q128.6328 93.5156 128.9453 93.2969 Q129.2734 93.0781 129.6797 92.9688 Q130.1016 92.8594 130.5391 92.8594 Q131.3203 92.8594 131.9297 93.125 L131.9297 94.0938 Q131.2734 93.6719 130.4141 93.6719 Q130.1328 93.6719 129.9141 93.7344 Q129.7109 93.7969 129.5547 93.9062 Q129.3984 94.0156 129.3047 94.1719 Q129.2266 94.3281 129.2266 94.5156 Q129.2266 94.75 129.3047 94.9062 Q129.3984 95.0625 129.5547 95.1875 Q129.7266 95.3125 129.9609 95.4062 Q130.1953 95.5 130.4922 95.625 Q130.8828 95.7812 131.1953 95.9375 Q131.5234 96.0938 131.7422 96.2969 Q131.9609 96.5 132.0859 96.7656 Q132.2109 97.0312 132.2109 97.3906 Q132.2109 97.8438 132.0078 98.1719 Q131.8203 98.5 131.4922 98.7188 Q131.1641 98.9219 130.7266 99.0312 Q130.3047 99.1406 129.8359 99.1406 Q128.9141 99.1406 128.2266 98.7812 ZM138.5059 96.2344 L134.2715 96.2344 Q134.2871 97.2344 134.8027 97.7812 Q135.3184 98.3281 136.2246 98.3281 Q137.2402 98.3281 138.084 97.6562 L138.084 98.5625 Q137.3027 99.1406 135.9902 99.1406 Q134.7246 99.1406 133.9902 98.3281 Q133.2715 97.5 133.2715 96.0156 Q133.2715 94.625 134.0684 93.75 Q134.8652 92.8594 136.0371 92.8594 Q137.209 92.8594 137.8496 93.625 Q138.5059 94.375 138.5059 95.7344 L138.5059 96.2344 ZM137.5215 95.4219 Q137.5215 94.5938 137.1152 94.1406 Q136.7246 93.6719 136.0215 93.6719 Q135.334 93.6719 134.8652 94.1562 Q134.3965 94.6406 134.2871 95.4219 L137.5215 95.4219 ZM143.9688 100.7344 L138.9844 100.7344 L138.9844 100.0469 L143.9688 100.0469 L143.9688 100.7344 ZM151.5742 99 L150.4805 99 L149.5898 96.6406 L146.0273 96.6406 L145.1836 99 L144.0898 99 L147.3242 90.5938 L148.3398 90.5938 L151.5742 99 ZM149.2617 95.7656 L147.9492 92.1719 Q147.8867 92 147.8242 91.6094 L147.793 91.6094 Q147.7461 91.9688 147.668 92.1719 L146.3555 95.7656 L149.2617 95.7656 Z"
                  clip-path="url(#clipPath6)" stroke="none"/>
            <path fill="black"
                  d="M104.3438 105.5938 L101.2344 114 L100.1562 114 L97.1094 105.5938 L98.2031 105.5938 L100.5312 112.2656 Q100.6406 112.5781 100.7031 113 L100.7188 113 Q100.7656 112.6562 100.9219 112.25 L103.2812 105.5938 L104.3438 105.5938 ZM105.9219 106.4688 Q105.6562 106.4688 105.4688 106.2969 Q105.2969 106.125 105.2969 105.8594 Q105.2969 105.5781 105.4688 105.4062 Q105.6562 105.2344 105.9219 105.2344 Q106.1875 105.2344 106.3594 105.4062 Q106.5469 105.5781 106.5469 105.8594 Q106.5469 106.1094 106.3594 106.2969 Q106.1875 106.4688 105.9219 106.4688 ZM106.3906 114 L105.4219 114 L105.4219 108 L106.3906 108 L106.3906 114 ZM107.9688 113.7812 L107.9688 112.75 Q108.75 113.3281 109.7031 113.3281 Q110.9688 113.3281 110.9688 112.4844 Q110.9688 112.25 110.8594 112.0781 Q110.75 111.9062 110.5625 111.7812 Q110.375 111.6562 110.125 111.5625 Q109.875 111.4531 109.5938 111.3438 Q109.1875 111.1875 108.8906 111.0312 Q108.5938 110.8594 108.3906 110.6562 Q108.1875 110.4531 108.0781 110.2031 Q107.9844 109.9375 107.9844 109.5938 Q107.9844 109.1719 108.1719 108.8438 Q108.375 108.5156 108.6875 108.2969 Q109.0156 108.0781 109.4219 107.9688 Q109.8438 107.8594 110.2812 107.8594 Q111.0625 107.8594 111.6719 108.125 L111.6719 109.0938 Q111.0156 108.6719 110.1562 108.6719 Q109.875 108.6719 109.6562 108.7344 Q109.4531 108.7969 109.2969 108.9062 Q109.1406 109.0156 109.0469 109.1719 Q108.9688 109.3281 108.9688 109.5156 Q108.9688 109.75 109.0469 109.9062 Q109.1406 110.0625 109.2969 110.1875 Q109.4688 110.3125 109.7031 110.4062 Q109.9375 110.5 110.2344 110.625 Q110.625 110.7812 110.9375 110.9375 Q111.2656 111.0938 111.4844 111.2969 Q111.7031 111.5 111.8281 111.7656 Q111.9531 112.0312 111.9531 112.3906 Q111.9531 112.8438 111.75 113.1719 Q111.5625 113.5 111.2344 113.7188 Q110.9062 113.9219 110.4688 114.0312 Q110.0469 114.1406 109.5781 114.1406 Q108.6562 114.1406 107.9688 113.7812 ZM113.9199 106.4688 Q113.6543 106.4688 113.4668 106.2969 Q113.2949 106.125 113.2949 105.8594 Q113.2949 105.5781 113.4668 105.4062 Q113.6543 105.2344 113.9199 105.2344 Q114.1855 105.2344 114.3574 105.4062 Q114.5449 105.5781 114.5449 105.8594 Q114.5449 106.1094 114.3574 106.2969 Q114.1855 106.4688 113.9199 106.4688 ZM114.3887 114 L113.4199 114 L113.4199 108 L114.3887 108 L114.3887 114 ZM118.8418 114.1406 Q117.5137 114.1406 116.7168 113.2969 Q115.9199 112.4531 115.9199 111.0625 Q115.9199 109.5625 116.748 108.7188 Q117.5762 107.8594 118.9824 107.8594 Q120.3262 107.8594 121.0762 108.6875 Q121.8262 109.5156 121.8262 110.9688 Q121.8262 112.4062 121.0137 113.2812 Q120.2012 114.1406 118.8418 114.1406 ZM118.9043 108.6719 Q117.9824 108.6719 117.4355 109.2969 Q116.9043 109.9219 116.9043 111.0312 Q116.9043 112.0938 117.4512 112.7188 Q117.998 113.3281 118.9043 113.3281 Q119.8418 113.3281 120.3418 112.7344 Q120.8418 112.125 120.8418 111.0156 Q120.8418 109.8906 120.3418 109.2812 Q119.8418 108.6719 118.9043 108.6719 ZM128.3418 114 L127.3887 114 L127.3887 110.5781 Q127.3887 108.6719 125.9824 108.6719 Q125.2637 108.6719 124.7949 109.2188 Q124.3262 109.75 124.3262 110.5781 L124.3262 114 L123.3574 114 L123.3574 108 L124.3262 108 L124.3262 109 L124.3418 109 Q125.0293 107.8594 126.3105 107.8594 Q127.2949 107.8594 127.8105 108.5 Q128.3418 109.125 128.3418 110.3281 L128.3418 114 ZM139.8105 105.5938 L136.7012 114 L135.623 114 L132.5762 105.5938 L133.6699 105.5938 L135.998 112.2656 Q136.1074 112.5781 136.1699 113 L136.1855 113 Q136.2324 112.6562 136.3887 112.25 L138.748 105.5938 L139.8105 105.5938 ZM141.3887 106.4688 Q141.123 106.4688 140.9355 106.2969 Q140.7637 106.125 140.7637 105.8594 Q140.7637 105.5781 140.9355 105.4062 Q141.123 105.2344 141.3887 105.2344 Q141.6543 105.2344 141.8262 105.4062 Q142.0137 105.5781 142.0137 105.8594 Q142.0137 106.1094 141.8262 106.2969 Q141.6543 106.4688 141.3887 106.4688 ZM141.8574 114 L140.8887 114 L140.8887 108 L141.8574 108 L141.8574 114 ZM148.623 111.2344 L144.3887 111.2344 Q144.4043 112.2344 144.9199 112.7812 Q145.4355 113.3281 146.3418 113.3281 Q147.3574 113.3281 148.2012 112.6562 L148.2012 113.5625 Q147.4199 114.1406 146.1074 114.1406 Q144.8418 114.1406 144.1074 113.3281 Q143.3887 112.5 143.3887 111.0156 Q143.3887 109.625 144.1855 108.75 Q144.9824 107.8594 146.1543 107.8594 Q147.3262 107.8594 147.9668 108.625 Q148.623 109.375 148.623 110.7344 L148.623 111.2344 ZM147.6387 110.4219 Q147.6387 109.5938 147.2324 109.1406 Q146.8418 108.6719 146.1387 108.6719 Q145.4512 108.6719 144.9824 109.1562 Q144.5137 109.6406 144.4043 110.4219 L147.6387 110.4219 ZM157.6328 108 L155.8359 114 L154.8359 114 L153.6016 109.7031 Q153.5391 109.4531 153.5078 109.1406 L153.4922 109.1406 Q153.4609 109.3594 153.3672 109.6875 L152.0234 114 L151.0547 114 L149.2422 108 L150.2578 108 L151.4922 112.5156 Q151.5547 112.7188 151.5703 113.0469 L151.6172 113.0469 Q151.6328 112.7969 151.7266 112.5 L153.1172 108 L153.9922 108 L155.2266 112.5156 Q155.2891 112.7344 155.3203 113.0625 L155.3672 113.0625 Q155.3828 112.8281 155.4609 112.5156 L156.6797 108 L157.6328 108 ZM158.3828 113.7812 L158.3828 112.75 Q159.1641 113.3281 160.1172 113.3281 Q161.3828 113.3281 161.3828 112.4844 Q161.3828 112.25 161.2734 112.0781 Q161.1641 111.9062 160.9766 111.7812 Q160.7891 111.6562 160.5391 111.5625 Q160.2891 111.4531 160.0078 111.3438 Q159.6016 111.1875 159.3047 111.0312 Q159.0078 110.8594 158.8047 110.6562 Q158.6016 110.4531 158.4922 110.2031 Q158.3984 109.9375 158.3984 109.5938 Q158.3984 109.1719 158.5859 108.8438 Q158.7891 108.5156 159.1016 108.2969 Q159.4297 108.0781 159.8359 107.9688 Q160.2578 107.8594 160.6953 107.8594 Q161.4766 107.8594 162.0859 108.125 L162.0859 109.0938 Q161.4297 108.6719 160.5703 108.6719 Q160.2891 108.6719 160.0703 108.7344 Q159.8672 108.7969 159.7109 108.9062 Q159.5547 109.0156 159.4609 109.1719 Q159.3828 109.3281 159.3828 109.5156 Q159.3828 109.75 159.4609 109.9062 Q159.5547 110.0625 159.7109 110.1875 Q159.8828 110.3125 160.1172 110.4062 Q160.3516 110.5 160.6484 110.625 Q161.0391 110.7812 161.3516 110.9375 Q161.6797 111.0938 161.8984 111.2969 Q162.1172 111.5 162.2422 111.7656 Q162.3672 112.0312 162.3672 112.3906 Q162.3672 112.8438 162.1641 113.1719 Q161.9766 113.5 161.6484 113.7188 Q161.3203 113.9219 160.8828 114.0312 Q160.4609 114.1406 159.9922 114.1406 Q159.0703 114.1406 158.3828 113.7812 Z"
                  clip-path="url(#clipPath6)" stroke="none"/>
            <rect x="310" y="82" clip-path="url(#clipPath7)"
                  fill="rgb(220,235,235)" width="119" height="54" stroke="none"/>
            <rect fill="none" x="310" width="119" height="54" y="82"
                  clip-path="url(#clipPath7)"/>
            <rect x="411" y="88" clip-path="url(#clipPath7)"
                  fill="rgb(220,240,250)" width="5" height="5" stroke="none"/>
            <rect x="411" y="97" clip-path="url(#clipPath7)"
                  fill="rgb(220,240,250)" width="5" height="5" stroke="none"/>
            <rect x="411" y="88" clip-path="url(#clipPath7)" fill="none"
                  width="5" height="5" stroke="rgb(20,105,171)"/>
            <rect x="411" y="97" clip-path="url(#clipPath7)" fill="none"
                  width="5" height="5" stroke="rgb(20,105,171)"/>
            <rect x="419" y="94" clip-path="url(#clipPath7)" fill="none"
                  width="2" height="2" stroke="rgb(20,105,171)"/>
            <line clip-path="url(#clipPath7)" fill="none" x1="418" x2="424"
                  y1="90" y2="90" stroke="rgb(193,232,255)"/>
            <line clip-path="url(#clipPath7)" fill="none" x1="418" x2="424"
                  y1="91" y2="91" stroke="rgb(20,105,171)"/>
            <line clip-path="url(#clipPath7)" fill="none" x1="418" x2="424"
                  y1="99" y2="99" stroke="rgb(193,232,255)"/>
            <line clip-path="url(#clipPath7)" fill="none" x1="418" x2="424"
                  y1="100" y2="100" stroke="rgb(20,105,171)"/>
            <line clip-path="url(#clipPath7)" fill="none" x1="422" x2="424"
                  y1="95" y2="95" stroke="rgb(20,105,171)"/>
            <path fill="black"
                  d="M350.0938 95.8281 L350.0938 99 L349.1094 99 L349.1094 90.5938 L351.4062 90.5938 Q352.7656 90.5938 353.5 91.25 Q354.2344 91.9062 354.2344 93.1094 Q354.2344 94.2969 353.4062 95.0625 Q352.5938 95.8281 351.1875 95.8281 L350.0938 95.8281 ZM350.0938 91.4844 L350.0938 94.9375 L351.125 94.9375 Q352.1406 94.9375 352.6719 94.4688 Q353.2031 94 353.2031 93.1562 Q353.2031 91.4844 351.2344 91.4844 L350.0938 91.4844 ZM360.6738 99 L359.7207 99 L359.7207 95.5469 Q359.7207 93.6719 358.3145 93.6719 Q357.6113 93.6719 357.127 94.2188 Q356.6582 94.75 356.6582 95.5938 L356.6582 99 L355.6895 99 L355.6895 90.1094 L356.6582 90.1094 L356.6582 94 L356.6738 94 Q357.377 92.8594 358.6426 92.8594 Q360.6738 92.8594 360.6738 95.2969 L360.6738 99 ZM366.7773 99 L365.8242 99 L365.8242 98.0625 L365.793 98.0625 Q365.168 99.1406 363.9492 99.1406 Q363.0586 99.1406 362.543 98.6719 Q362.043 98.1875 362.043 97.4062 Q362.043 95.7188 364.0273 95.4531 L365.8242 95.2031 Q365.8242 93.6719 364.5898 93.6719 Q363.4961 93.6719 362.6211 94.4062 L362.6211 93.4219 Q363.5117 92.8594 364.668 92.8594 Q366.7773 92.8594 366.7773 95.0938 L366.7773 99 ZM365.8242 95.9688 L364.3711 96.1562 Q363.6992 96.25 363.3555 96.5 Q363.0273 96.7344 363.0273 97.3281 Q363.0273 97.7812 363.3398 98.0625 Q363.6523 98.3281 364.168 98.3281 Q364.8867 98.3281 365.3555 97.8281 Q365.8242 97.3281 365.8242 96.5625 L365.8242 95.9688 ZM368.2266 98.7812 L368.2266 97.75 Q369.0078 98.3281 369.9609 98.3281 Q371.2266 98.3281 371.2266 97.4844 Q371.2266 97.25 371.1172 97.0781 Q371.0078 96.9062 370.8203 96.7812 Q370.6328 96.6562 370.3828 96.5625 Q370.1328 96.4531 369.8516 96.3438 Q369.4453 96.1875 369.1484 96.0312 Q368.8516 95.8594 368.6484 95.6562 Q368.4453 95.4531 368.3359 95.2031 Q368.2422 94.9375 368.2422 94.5938 Q368.2422 94.1719 368.4297 93.8438 Q368.6328 93.5156 368.9453 93.2969 Q369.2734 93.0781 369.6797 92.9688 Q370.1016 92.8594 370.5391 92.8594 Q371.3203 92.8594 371.9297 93.125 L371.9297 94.0938 Q371.2734 93.6719 370.4141 93.6719 Q370.1328 93.6719 369.9141 93.7344 Q369.7109 93.7969 369.5547 93.9062 Q369.3984 94.0156 369.3047 94.1719 Q369.2266 94.3281 369.2266 94.5156 Q369.2266 94.75 369.3047 94.9062 Q369.3984 95.0625 369.5547 95.1875 Q369.7266 95.3125 369.9609 95.4062 Q370.1953 95.5 370.4922 95.625 Q370.8828 95.7812 371.1953 95.9375 Q371.5234 96.0938 371.7422 96.2969 Q371.9609 96.5 372.0859 96.7656 Q372.2109 97.0312 372.2109 97.3906 Q372.2109 97.8438 372.0078 98.1719 Q371.8203 98.5 371.4922 98.7188 Q371.1641 98.9219 370.7266 99.0312 Q370.3047 99.1406 369.8359 99.1406 Q368.9141 99.1406 368.2266 98.7812 ZM378.5059 96.2344 L374.2715 96.2344 Q374.2871 97.2344 374.8027 97.7812 Q375.3184 98.3281 376.2246 98.3281 Q377.2402 98.3281 378.084 97.6562 L378.084 98.5625 Q377.3027 99.1406 375.9902 99.1406 Q374.7246 99.1406 373.9902 98.3281 Q373.2715 97.5 373.2715 96.0156 Q373.2715 94.625 374.0684 93.75 Q374.8652 92.8594 376.0371 92.8594 Q377.209 92.8594 377.8496 93.625 Q378.5059 94.375 378.5059 95.7344 L378.5059 96.2344 ZM377.5215 95.4219 Q377.5215 94.5938 377.1152 94.1406 Q376.7246 93.6719 376.0215 93.6719 Q375.334 93.6719 374.8652 94.1562 Q374.3965 94.6406 374.2871 95.4219 L377.5215 95.4219 ZM383.9688 100.7344 L378.9844 100.7344 L378.9844 100.0469 L383.9688 100.0469 L383.9688 100.7344 ZM385.0742 99 L385.0742 90.5938 L387.4648 90.5938 Q388.543 90.5938 389.1836 91.125 Q389.8242 91.6562 389.8242 92.5156 Q389.8242 93.2344 389.4336 93.7656 Q389.0586 94.2812 388.3711 94.5156 L388.3711 94.5312 Q389.2148 94.6406 389.7305 95.1875 Q390.2461 95.7188 390.2461 96.5781 Q390.2461 97.6562 389.4648 98.3281 Q388.6992 99 387.5117 99 L385.0742 99 ZM386.0586 91.4844 L386.0586 94.2031 L387.0586 94.2031 Q387.8711 94.2031 388.3242 93.8125 Q388.793 93.4219 388.793 92.7188 Q388.793 91.4844 387.1836 91.4844 L386.0586 91.4844 ZM386.0586 95.0781 L386.0586 98.1094 L387.3867 98.1094 Q388.2617 98.1094 388.7305 97.7031 Q389.2148 97.2812 389.2148 96.5781 Q389.2148 95.0781 387.1836 95.0781 L386.0586 95.0781 Z"
                  clip-path="url(#clipPath8)" stroke="none"/>
            <path fill="black"
                  d="M348.1094 114 L348.1094 105.5938 L350.5 105.5938 Q351.5781 105.5938 352.2188 106.125 Q352.8594 106.6562 352.8594 107.5156 Q352.8594 108.2344 352.4688 108.7656 Q352.0938 109.2812 351.4062 109.5156 L351.4062 109.5312 Q352.25 109.6406 352.7656 110.1875 Q353.2812 110.7188 353.2812 111.5781 Q353.2812 112.6562 352.5 113.3281 Q351.7344 114 350.5469 114 L348.1094 114 ZM349.0938 106.4844 L349.0938 109.2031 L350.0938 109.2031 Q350.9062 109.2031 351.3594 108.8125 Q351.8281 108.4219 351.8281 107.7188 Q351.8281 106.4844 350.2188 106.4844 L349.0938 106.4844 ZM349.0938 110.0781 L349.0938 113.1094 L350.4219 113.1094 Q351.2969 113.1094 351.7656 112.7031 Q352.25 112.2812 352.25 111.5781 Q352.25 110.0781 350.2188 110.0781 L349.0938 110.0781 ZM359.707 114 L358.7383 114 L358.7383 113.0469 L358.7227 113.0469 Q358.1289 114.1406 356.8633 114.1406 Q354.7227 114.1406 354.7227 111.5781 L354.7227 108 L355.6758 108 L355.6758 111.4375 Q355.6758 113.3281 357.1289 113.3281 Q357.832 113.3281 358.2852 112.8125 Q358.7383 112.2969 358.7383 111.4531 L358.7383 108 L359.707 108 L359.707 114 ZM361.2793 113.7812 L361.2793 112.75 Q362.0605 113.3281 363.0137 113.3281 Q364.2793 113.3281 364.2793 112.4844 Q364.2793 112.25 364.1699 112.0781 Q364.0605 111.9062 363.873 111.7812 Q363.6855 111.6562 363.4355 111.5625 Q363.1855 111.4531 362.9043 111.3438 Q362.498 111.1875 362.2012 111.0312 Q361.9043 110.8594 361.7012 110.6562 Q361.498 110.4531 361.3887 110.2031 Q361.2949 109.9375 361.2949 109.5938 Q361.2949 109.1719 361.4824 108.8438 Q361.6855 108.5156 361.998 108.2969 Q362.3262 108.0781 362.7324 107.9688 Q363.1543 107.8594 363.5918 107.8594 Q364.373 107.8594 364.9824 108.125 L364.9824 109.0938 Q364.3262 108.6719 363.4668 108.6719 Q363.1855 108.6719 362.9668 108.7344 Q362.7637 108.7969 362.6074 108.9062 Q362.4512 109.0156 362.3574 109.1719 Q362.2793 109.3281 362.2793 109.5156 Q362.2793 109.75 362.3574 109.9062 Q362.4512 110.0625 362.6074 110.1875 Q362.7793 110.3125 363.0137 110.4062 Q363.248 110.5 363.5449 110.625 Q363.9355 110.7812 364.248 110.9375 Q364.5762 111.0938 364.7949 111.2969 Q365.0137 111.5 365.1387 111.7656 Q365.2637 112.0312 365.2637 112.3906 Q365.2637 112.8438 365.0605 113.1719 Q364.873 113.5 364.5449 113.7188 Q364.2168 113.9219 363.7793 114.0312 Q363.3574 114.1406 362.8887 114.1406 Q361.9668 114.1406 361.2793 113.7812 ZM367.2305 106.4688 Q366.9648 106.4688 366.7773 106.2969 Q366.6055 106.125 366.6055 105.8594 Q366.6055 105.5781 366.7773 105.4062 Q366.9648 105.2344 367.2305 105.2344 Q367.4961 105.2344 367.668 105.4062 Q367.8555 105.5781 367.8555 105.8594 Q367.8555 106.1094 367.668 106.2969 Q367.4961 106.4688 367.2305 106.4688 ZM367.6992 114 L366.7305 114 L366.7305 108 L367.6992 108 L367.6992 114 ZM374.6211 114 L373.668 114 L373.668 110.5781 Q373.668 108.6719 372.2617 108.6719 Q371.543 108.6719 371.0742 109.2188 Q370.6055 109.75 370.6055 110.5781 L370.6055 114 L369.6367 114 L369.6367 108 L370.6055 108 L370.6055 109 L370.6211 109 Q371.3086 107.8594 372.5898 107.8594 Q373.5742 107.8594 374.0898 108.5 Q374.6211 109.125 374.6211 110.3281 L374.6211 114 ZM381.2559 111.2344 L377.0215 111.2344 Q377.0371 112.2344 377.5527 112.7812 Q378.0684 113.3281 378.9746 113.3281 Q379.9902 113.3281 380.834 112.6562 L380.834 113.5625 Q380.0527 114.1406 378.7402 114.1406 Q377.4746 114.1406 376.7402 113.3281 Q376.0215 112.5 376.0215 111.0156 Q376.0215 109.625 376.8184 108.75 Q377.6152 107.8594 378.7871 107.8594 Q379.959 107.8594 380.5996 108.625 Q381.2559 109.375 381.2559 110.7344 L381.2559 111.2344 ZM380.2715 110.4219 Q380.2715 109.5938 379.8652 109.1406 Q379.4746 108.6719 378.7715 108.6719 Q378.084 108.6719 377.6152 109.1562 Q377.1465 109.6406 377.0371 110.4219 L380.2715 110.4219 ZM382.3438 113.7812 L382.3438 112.75 Q383.125 113.3281 384.0781 113.3281 Q385.3438 113.3281 385.3438 112.4844 Q385.3438 112.25 385.2344 112.0781 Q385.125 111.9062 384.9375 111.7812 Q384.75 111.6562 384.5 111.5625 Q384.25 111.4531 383.9688 111.3438 Q383.5625 111.1875 383.2656 111.0312 Q382.9688 110.8594 382.7656 110.6562 Q382.5625 110.4531 382.4531 110.2031 Q382.3594 109.9375 382.3594 109.5938 Q382.3594 109.1719 382.5469 108.8438 Q382.75 108.5156 383.0625 108.2969 Q383.3906 108.0781 383.7969 107.9688 Q384.2188 107.8594 384.6562 107.8594 Q385.4375 107.8594 386.0469 108.125 L386.0469 109.0938 Q385.3906 108.6719 384.5312 108.6719 Q384.25 108.6719 384.0312 108.7344 Q383.8281 108.7969 383.6719 108.9062 Q383.5156 109.0156 383.4219 109.1719 Q383.3438 109.3281 383.3438 109.5156 Q383.3438 109.75 383.4219 109.9062 Q383.5156 110.0625 383.6719 110.1875 Q383.8438 110.3125 384.0781 110.4062 Q384.3125 110.5 384.6094 110.625 Q385 110.7812 385.3125 110.9375 Q385.6406 111.0938 385.8594 111.2969 Q386.0781 111.5 386.2031 111.7656 Q386.3281 112.0312 386.3281 112.3906 Q386.3281 112.8438 386.125 113.1719 Q385.9375 113.5 385.6094 113.7188 Q385.2812 113.9219 384.8438 114.0312 Q384.4219 114.1406 383.9531 114.1406 Q383.0312 114.1406 382.3438 113.7812 ZM387.4355 113.7812 L387.4355 112.75 Q388.2168 113.3281 389.1699 113.3281 Q390.4355 113.3281 390.4355 112.4844 Q390.4355 112.25 390.3262 112.0781 Q390.2168 111.9062 390.0293 111.7812 Q389.8418 111.6562 389.5918 111.5625 Q389.3418 111.4531 389.0605 111.3438 Q388.6543 111.1875 388.3574 111.0312 Q388.0605 110.8594 387.8574 110.6562 Q387.6543 110.4531 387.5449 110.2031 Q387.4512 109.9375 387.4512 109.5938 Q387.4512 109.1719 387.6387 108.8438 Q387.8418 108.5156 388.1543 108.2969 Q388.4824 108.0781 388.8887 107.9688 Q389.3105 107.8594 389.748 107.8594 Q390.5293 107.8594 391.1387 108.125 L391.1387 109.0938 Q390.4824 108.6719 389.623 108.6719 Q389.3418 108.6719 389.123 108.7344 Q388.9199 108.7969 388.7637 108.9062 Q388.6074 109.0156 388.5137 109.1719 Q388.4355 109.3281 388.4355 109.5156 Q388.4355 109.75 388.5137 109.9062 Q388.6074 110.0625 388.7637 110.1875 Q388.9355 110.3125 389.1699 110.4062 Q389.4043 110.5 389.7012 110.625 Q390.0918 110.7812 390.4043 110.9375 Q390.7324 111.0938 390.9512 111.2969 Q391.1699 111.5 391.2949 111.7656 Q391.4199 112.0312 391.4199 112.3906 Q391.4199 112.8438 391.2168 113.1719 Q391.0293 113.5 390.7012 113.7188 Q390.373 113.9219 389.9355 114.0312 Q389.5137 114.1406 389.0449 114.1406 Q388.123 114.1406 387.4355 113.7812 Z"
                  clip-path="url(#clipPath8)" stroke="none"/>
            <path fill="black"
                  d="M344.6094 129 L343.5156 129 L342.625 126.6406 L339.0625 126.6406 L338.2188 129 L337.125 129 L340.3594 120.5938 L341.375 120.5938 L344.6094 129 ZM342.2969 125.7656 L340.9844 122.1719 Q340.9219 122 340.8594 121.6094 L340.8281 121.6094 Q340.7812 121.9688 340.7031 122.1719 L339.3906 125.7656 L342.2969 125.7656 ZM348.8496 123.9688 Q348.584 123.7812 348.1152 123.7812 Q347.5059 123.7812 347.084 124.3594 Q346.6777 124.9375 346.6777 125.9375 L346.6777 129 L345.709 129 L345.709 123 L346.6777 123 L346.6777 124.2344 L346.6934 124.2344 Q346.8965 123.6094 347.3184 123.25 Q347.7402 122.8906 348.2715 122.8906 Q348.6465 122.8906 348.8496 122.9688 L348.8496 123.9688 ZM353.9746 128.7188 Q353.2871 129.1406 352.334 129.1406 Q351.0527 129.1406 350.2559 128.3125 Q349.4746 127.4688 349.4746 126.1406 Q349.4746 124.6562 350.3184 123.7656 Q351.1777 122.8594 352.5996 122.8594 Q353.3809 122.8594 353.9902 123.1562 L353.9902 124.1406 Q353.3184 123.6719 352.5527 123.6719 Q351.6309 123.6719 351.0371 124.3281 Q350.459 124.9844 350.459 126.0625 Q350.459 127.1094 351.0059 127.7188 Q351.5684 128.3281 352.5059 128.3281 Q353.2871 128.3281 353.9746 127.8125 L353.9746 128.7188 ZM360.4082 129 L359.4551 129 L359.4551 125.5469 Q359.4551 123.6719 358.0488 123.6719 Q357.3457 123.6719 356.8613 124.2188 Q356.3926 124.75 356.3926 125.5938 L356.3926 129 L355.4238 129 L355.4238 120.1094 L356.3926 120.1094 L356.3926 124 L356.4082 124 Q357.1113 122.8594 358.377 122.8594 Q360.4082 122.8594 360.4082 125.2969 L360.4082 129 ZM362.7148 121.4688 Q362.4492 121.4688 362.2617 121.2969 Q362.0898 121.125 362.0898 120.8594 Q362.0898 120.5781 362.2617 120.4062 Q362.4492 120.2344 362.7148 120.2344 Q362.9805 120.2344 363.1523 120.4062 Q363.3398 120.5781 363.3398 120.8594 Q363.3398 121.1094 363.1523 121.2969 Q362.9805 121.4688 362.7148 121.4688 ZM363.1836 129 L362.2148 129 L362.2148 123 L363.1836 123 L363.1836 129 ZM367.9023 128.9375 Q367.5742 129.125 367.0117 129.125 Q365.4336 129.125 365.4336 127.375 L365.4336 123.8125 L364.4023 123.8125 L364.4023 123 L365.4336 123 L365.4336 121.5312 L366.4023 121.2188 L366.4023 123 L367.9023 123 L367.9023 123.8125 L366.4023 123.8125 L366.4023 127.2031 Q366.4023 127.7969 366.6055 128.0625 Q366.8086 128.3125 367.2773 128.3125 Q367.6523 128.3125 367.9023 128.125 L367.9023 128.9375 ZM374.0156 126.2344 L369.7812 126.2344 Q369.7969 127.2344 370.3125 127.7812 Q370.8281 128.3281 371.7344 128.3281 Q372.75 128.3281 373.5938 127.6562 L373.5938 128.5625 Q372.8125 129.1406 371.5 129.1406 Q370.2344 129.1406 369.5 128.3281 Q368.7812 127.5 368.7812 126.0156 Q368.7812 124.625 369.5781 123.75 Q370.375 122.8594 371.5469 122.8594 Q372.7188 122.8594 373.3594 123.625 Q374.0156 124.375 374.0156 125.7344 L374.0156 126.2344 ZM373.0312 125.4219 Q373.0312 124.5938 372.625 124.1406 Q372.2344 123.6719 371.5312 123.6719 Q370.8438 123.6719 370.375 124.1562 Q369.9062 124.6406 369.7969 125.4219 L373.0312 125.4219 ZM379.5566 128.7188 Q378.8691 129.1406 377.916 129.1406 Q376.6348 129.1406 375.8379 128.3125 Q375.0566 127.4688 375.0566 126.1406 Q375.0566 124.6562 375.9004 123.7656 Q376.7598 122.8594 378.1816 122.8594 Q378.9629 122.8594 379.5723 123.1562 L379.5723 124.1406 Q378.9004 123.6719 378.1348 123.6719 Q377.2129 123.6719 376.6191 124.3281 Q376.041 124.9844 376.041 126.0625 Q376.041 127.1094 376.5879 127.7188 Q377.1504 128.3281 378.0879 128.3281 Q378.8691 128.3281 379.5566 127.8125 L379.5566 128.7188 ZM383.7871 128.9375 Q383.459 129.125 382.8965 129.125 Q381.3184 129.125 381.3184 127.375 L381.3184 123.8125 L380.2871 123.8125 L380.2871 123 L381.3184 123 L381.3184 121.5312 L382.2871 121.2188 L382.2871 123 L383.7871 123 L383.7871 123.8125 L382.2871 123.8125 L382.2871 127.2031 Q382.2871 127.7969 382.4902 128.0625 Q382.6934 128.3125 383.1621 128.3125 Q383.5371 128.3125 383.7871 128.125 L383.7871 128.9375 ZM389.9316 129 L388.9629 129 L388.9629 128.0469 L388.9473 128.0469 Q388.3535 129.1406 387.0879 129.1406 Q384.9473 129.1406 384.9473 126.5781 L384.9473 123 L385.9004 123 L385.9004 126.4375 Q385.9004 128.3281 387.3535 128.3281 Q388.0566 128.3281 388.5098 127.8125 Q388.9629 127.2969 388.9629 126.4531 L388.9629 123 L389.9316 123 L389.9316 129 ZM395.0039 123.9688 Q394.7383 123.7812 394.2695 123.7812 Q393.6602 123.7812 393.2383 124.3594 Q392.832 124.9375 392.832 125.9375 L392.832 129 L391.8633 129 L391.8633 123 L392.832 123 L392.832 124.2344 L392.8477 124.2344 Q393.0508 123.6094 393.4727 123.25 Q393.8945 122.8906 394.4258 122.8906 Q394.8008 122.8906 395.0039 122.9688 L395.0039 123.9688 ZM400.8633 126.2344 L396.6289 126.2344 Q396.6445 127.2344 397.1602 127.7812 Q397.6758 128.3281 398.582 128.3281 Q399.5977 128.3281 400.4414 127.6562 L400.4414 128.5625 Q399.6602 129.1406 398.3477 129.1406 Q397.082 129.1406 396.3477 128.3281 Q395.6289 127.5 395.6289 126.0156 Q395.6289 124.625 396.4258 123.75 Q397.2227 122.8594 398.3945 122.8594 Q399.5664 122.8594 400.207 123.625 Q400.8633 124.375 400.8633 125.7344 L400.8633 126.2344 ZM399.8789 125.4219 Q399.8789 124.5938 399.4727 124.1406 Q399.082 123.6719 398.3789 123.6719 Q397.6914 123.6719 397.2227 124.1562 Q396.7539 124.6406 396.6445 125.4219 L399.8789 125.4219 Z"
                  clip-path="url(#clipPath8)" stroke="none"/>
            <path fill="black"
                  d="M362.3438 135.5938 L359.2344 144 L358.1562 144 L355.1094 135.5938 L356.2031 135.5938 L358.5312 142.2656 Q358.6406 142.5781 358.7031 143 L358.7188 143 Q358.7656 142.6562 358.9219 142.25 L361.2812 135.5938 L362.3438 135.5938 ZM363.9219 136.4688 Q363.6562 136.4688 363.4688 136.2969 Q363.2969 136.125 363.2969 135.8594 Q363.2969 135.5781 363.4688 135.4062 Q363.6562 135.2344 363.9219 135.2344 Q364.1875 135.2344 364.3594 135.4062 Q364.5469 135.5781 364.5469 135.8594 Q364.5469 136.1094 364.3594 136.2969 Q364.1875 136.4688 363.9219 136.4688 ZM364.3906 144 L363.4219 144 L363.4219 138 L364.3906 138 L364.3906 144 ZM371.1562 141.2344 L366.9219 141.2344 Q366.9375 142.2344 367.4531 142.7812 Q367.9688 143.3281 368.875 143.3281 Q369.8906 143.3281 370.7344 142.6562 L370.7344 143.5625 Q369.9531 144.1406 368.6406 144.1406 Q367.375 144.1406 366.6406 143.3281 Q365.9219 142.5 365.9219 141.0156 Q365.9219 139.625 366.7188 138.75 Q367.5156 137.8594 368.6875 137.8594 Q369.8594 137.8594 370.5 138.625 Q371.1562 139.375 371.1562 140.7344 L371.1562 141.2344 ZM370.1719 140.4219 Q370.1719 139.5938 369.7656 139.1406 Q369.375 138.6719 368.6719 138.6719 Q367.9844 138.6719 367.5156 139.1562 Q367.0469 139.6406 366.9375 140.4219 L370.1719 140.4219 ZM380.166 138 L378.3691 144 L377.3691 144 L376.1348 139.7031 Q376.0723 139.4531 376.041 139.1406 L376.0254 139.1406 Q375.9941 139.3594 375.9004 139.6875 L374.5566 144 L373.5879 144 L371.7754 138 L372.791 138 L374.0254 142.5156 Q374.0879 142.7188 374.1035 143.0469 L374.1504 143.0469 Q374.166 142.7969 374.2598 142.5 L375.6504 138 L376.5254 138 L377.7598 142.5156 Q377.8223 142.7344 377.8535 143.0625 L377.9004 143.0625 Q377.916 142.8281 377.9941 142.5156 L379.2129 138 L380.166 138 ZM380.916 143.7812 L380.916 142.75 Q381.6973 143.3281 382.6504 143.3281 Q383.916 143.3281 383.916 142.4844 Q383.916 142.25 383.8066 142.0781 Q383.6973 141.9062 383.5098 141.7812 Q383.3223 141.6562 383.0723 141.5625 Q382.8223 141.4531 382.541 141.3438 Q382.1348 141.1875 381.8379 141.0312 Q381.541 140.8594 381.3379 140.6562 Q381.1348 140.4531 381.0254 140.2031 Q380.9316 139.9375 380.9316 139.5938 Q380.9316 139.1719 381.1191 138.8438 Q381.3223 138.5156 381.6348 138.2969 Q381.9629 138.0781 382.3691 137.9688 Q382.791 137.8594 383.2285 137.8594 Q384.0098 137.8594 384.6191 138.125 L384.6191 139.0938 Q383.9629 138.6719 383.1035 138.6719 Q382.8223 138.6719 382.6035 138.7344 Q382.4004 138.7969 382.2441 138.9062 Q382.0879 139.0156 381.9941 139.1719 Q381.916 139.3281 381.916 139.5156 Q381.916 139.75 381.9941 139.9062 Q382.0879 140.0625 382.2441 140.1875 Q382.416 140.3125 382.6504 140.4062 Q382.8848 140.5 383.1816 140.625 Q383.5723 140.7812 383.8848 140.9375 Q384.2129 141.0938 384.4316 141.2969 Q384.6504 141.5 384.7754 141.7656 Q384.9004 142.0312 384.9004 142.3906 Q384.9004 142.8438 384.6973 143.1719 Q384.5098 143.5 384.1816 143.7188 Q383.8535 143.9219 383.416 144.0312 Q382.9941 144.1406 382.5254 144.1406 Q381.6035 144.1406 380.916 143.7812 Z"
                  clip-path="url(#clipPath8)" stroke="none"/>
        </g>
    </g>
</svg>
