<?xml version="1.0"?>


<svg fill-opacity="1" xmlns:xlink="http://www.w3.org/1999/xlink"
     color-rendering="auto" color-interpolation="auto" text-rendering="auto"
     stroke="black" stroke-linecap="square" width="747" stroke-miterlimit="10"
     shape-rendering="auto" stroke-opacity="1" fill="black"
     stroke-dasharray="none" font-weight="normal" stroke-width="1"
     viewBox="0 0 747 535" height="535" xmlns="http://www.w3.org/2000/svg"
     font-family="'Dialog'" font-style="normal" stroke-linejoin="miter"
     font-size="12px" stroke-dashoffset="0" image-rendering="auto">
    <!--Generated by Archi with Batik SVG Generator-->
    <defs id="genericDefs"/>
    <g>
        <defs id="defs1">
            <clipPath clipPathUnits="userSpaceOnUse" id="clipPath1">
                <path d="M9 9 L552 9 L552 48 L9 48 L9 9 Z"/>
            </clipPath>
            <clipPath clipPathUnits="userSpaceOnUse" id="clipPath2">
                <path d="M223 15 L338 15 L338 42 L223 42 L223 15 Z"/>
            </clipPath>
            <clipPath clipPathUnits="userSpaceOnUse" id="clipPath3">
                <path d="M525 477 L738 477 L738 526 L525 526 L525 477 Z"/>
            </clipPath>
            <clipPath clipPathUnits="userSpaceOnUse" id="clipPath4">
                <path d="M530 482 L720 482 L720 514 L530 514 L530 482 Z"/>
            </clipPath>
        </defs>
        <g font-size="18px" fill="white" text-rendering="optimizeLegibility"
           font-family="'Segoe UI'" stroke-linejoin="round" stroke="white"
           font-weight="bold" stroke-width="0" stroke-miterlimit="0">
            <path d="M10 10 L550 10 L550 46 L10 46 Z" fill-rule="evenodd"
                  clip-path="url(#clipPath1)" stroke="none"/>
            <path fill="black"
                  d="M225.4375 36 L225.4375 23.3906 L229.9062 23.3906 Q236.625 23.3906 236.625 29.5469 Q236.625 32.4844 234.7812 34.25 Q232.9531 36 229.9062 36 L225.4375 36 ZM228.2812 25.7031 L228.2812 33.7031 L229.6875 33.7031 Q231.5312 33.7031 232.5781 32.5938 Q233.6406 31.4844 233.6406 29.5781 Q233.6406 27.7656 232.5938 26.7344 Q231.5469 25.7031 229.6719 25.7031 L228.2812 25.7031 ZM246.5215 32.2969 L240.6621 32.2969 Q240.8027 34.25 243.1309 34.25 Q244.6152 34.25 245.7402 33.5469 L245.7402 35.5469 Q244.4902 36.2188 242.4902 36.2188 Q240.3184 36.2188 239.1152 35.0156 Q237.9121 33.7969 237.9121 31.6406 Q237.9121 29.4062 239.209 28.0938 Q240.5059 26.7812 242.4121 26.7812 Q244.3809 26.7812 245.4434 27.9531 Q246.5215 29.125 246.5215 31.125 L246.5215 32.2969 ZM243.959 30.5781 Q243.959 28.6562 242.3809 28.6562 Q241.7246 28.6562 241.2246 29.2188 Q240.7402 29.7656 240.6309 30.5781 L243.959 30.5781 ZM254.0566 24.7969 Q253.5098 24.5938 253.0254 24.5938 Q251.6816 24.5938 251.6816 26.0469 L251.6816 27 L253.7441 27 L253.7441 29.0469 L251.6816 29.0469 L251.6816 36 L248.916 36 L248.916 29.0469 L247.4004 29.0469 L247.4004 27 L248.916 27 L248.916 25.8906 Q248.916 24.3438 249.916 23.4062 Q250.916 22.4688 252.6504 22.4688 Q253.4941 22.4688 254.0566 22.6406 L254.0566 24.7969 ZM262.5654 36 L259.9404 36 L259.9404 34.7031 L259.9092 34.7031 Q259.0029 36.2188 257.2217 36.2188 Q255.9092 36.2188 255.1592 35.4844 Q254.4092 34.7344 254.4092 33.5 Q254.4092 30.875 257.5186 30.4688 L259.9561 30.1406 Q259.9561 28.6719 258.3623 28.6719 Q256.7529 28.6719 255.2998 29.625 L255.2998 27.5312 Q255.8779 27.2344 256.8779 27.0156 Q257.8936 26.7812 258.7217 26.7812 Q262.5654 26.7812 262.5654 30.625 L262.5654 36 ZM259.9561 32.3438 L259.9561 31.7344 L258.3154 31.9531 Q256.9717 32.125 256.9717 33.1719 Q256.9717 33.6406 257.2998 33.9531 Q257.6279 34.25 258.1904 34.25 Q258.9717 34.25 259.4561 33.7188 Q259.9561 33.1719 259.9561 32.3438 ZM273.3135 36 L270.5479 36 L270.5479 34.625 L270.501 34.625 Q269.4697 36.2188 267.751 36.2188 Q264.626 36.2188 264.626 32.4375 L264.626 27 L267.3916 27 L267.3916 32.1875 Q267.3916 34.0938 268.9072 34.0938 Q269.6572 34.0938 270.0947 33.5781 Q270.5479 33.0469 270.5479 32.1562 L270.5479 27 L273.3135 27 L273.3135 36 ZM278.4375 36 L275.6562 36 L275.6562 22.6719 L278.4375 22.6719 L278.4375 36 ZM286.209 35.8906 Q285.5996 36.2188 284.3496 36.2188 Q281.4121 36.2188 281.4121 33.1719 L281.4121 29.0469 L279.959 29.0469 L279.959 27 L281.4121 27 L281.4121 25.0625 L284.1934 24.2656 L284.1934 27 L286.209 27 L286.209 29.0469 L284.1934 29.0469 L284.1934 32.6875 Q284.1934 34.0938 285.3027 34.0938 Q285.7402 34.0938 286.209 33.8438 L286.209 35.8906 ZM303.5078 23.3906 L299.1641 36 L295.9453 36 L291.6641 23.3906 L294.7109 23.3906 L297.3516 32.1719 Q297.5547 32.875 297.6016 33.4219 L297.6484 33.4219 Q297.7109 32.8281 297.9297 32.125 L300.5391 23.3906 L303.5078 23.3906 ZM306.1543 25.5781 Q305.4512 25.5781 304.998 25.1562 Q304.5449 24.7344 304.5449 24.1406 Q304.5449 23.5156 304.998 23.125 Q305.4512 22.7188 306.1543 22.7188 Q306.8574 22.7188 307.2949 23.125 Q307.748 23.5156 307.748 24.1406 Q307.748 24.7656 307.2949 25.1719 Q306.8574 25.5781 306.1543 25.5781 ZM307.5293 36 L304.748 36 L304.748 27 L307.5293 27 L307.5293 36 ZM317.9414 32.2969 L312.082 32.2969 Q312.2227 34.25 314.5508 34.25 Q316.0352 34.25 317.1602 33.5469 L317.1602 35.5469 Q315.9102 36.2188 313.9102 36.2188 Q311.7383 36.2188 310.5352 35.0156 Q309.332 33.7969 309.332 31.6406 Q309.332 29.4062 310.6289 28.0938 Q311.9258 26.7812 313.832 26.7812 Q315.8008 26.7812 316.8633 27.9531 Q317.9414 29.125 317.9414 31.125 L317.9414 32.2969 ZM315.3789 30.5781 Q315.3789 28.6562 313.8008 28.6562 Q313.1445 28.6562 312.6445 29.2188 Q312.1602 29.7656 312.0508 30.5781 L315.3789 30.5781 ZM332.6328 27 L330.0391 36 L327.1172 36 L325.7891 30.7188 Q325.6641 30.2031 325.6484 29.5781 L325.5859 29.5781 Q325.5391 30.2656 325.4141 30.6875 L323.9922 36 L321.1172 36 L318.5703 27 L321.3984 27 L322.6328 32.875 Q322.7266 33.2812 322.7734 33.875 L322.8203 33.875 Q322.8672 33.25 322.9766 32.8281 L324.5234 27 L327.1797 27 L328.5703 32.875 Q328.6172 33.0938 328.6797 33.8906 L328.7422 33.8906 Q328.7891 33.375 328.8828 32.875 L330.0547 27 L332.6328 27 Z"
                  clip-path="url(#clipPath2)" stroke="none"/>
            <path d="M526 478 L736 478 L736 524 L526 524 Z" fill-rule="evenodd"
                  clip-path="url(#clipPath3)" stroke="none"/>
        </g>
        <g text-rendering="optimizeLegibility" stroke-miterlimit="0"
           stroke-width="0" font-family="'Segoe UI'" stroke-linejoin="round">
            <path d="M536.4688 496 L532.1094 496 L532.1094 487.5938 L533.0938 487.5938 L533.0938 495.1094 L536.4688 495.1094 L536.4688 496 ZM541.9141 496 L540.9609 496 L540.9609 495.0625 L540.9297 495.0625 Q540.3047 496.1406 539.0859 496.1406 Q538.1953 496.1406 537.6797 495.6719 Q537.1797 495.1875 537.1797 494.4062 Q537.1797 492.7188 539.1641 492.4531 L540.9609 492.2031 Q540.9609 490.6719 539.7266 490.6719 Q538.6328 490.6719 537.7578 491.4062 L537.7578 490.4219 Q538.6484 489.8594 539.8047 489.8594 Q541.9141 489.8594 541.9141 492.0938 L541.9141 496 ZM540.9609 492.9688 L539.5078 493.1562 Q538.8359 493.25 538.4922 493.5 Q538.1641 493.7344 538.1641 494.3281 Q538.1641 494.7812 538.4766 495.0625 Q538.7891 495.3281 539.3047 495.3281 Q540.0234 495.3281 540.4922 494.8281 Q540.9609 494.3281 540.9609 493.5625 L540.9609 492.9688 ZM543.3633 495.7812 L543.3633 494.75 Q544.1445 495.3281 545.0977 495.3281 Q546.3633 495.3281 546.3633 494.4844 Q546.3633 494.25 546.2539 494.0781 Q546.1445 493.9062 545.957 493.7812 Q545.7695 493.6562 545.5195 493.5625 Q545.2695 493.4531 544.9883 493.3438 Q544.582 493.1875 544.2852 493.0312 Q543.9883 492.8594 543.7852 492.6562 Q543.582 492.4531 543.4727 492.2031 Q543.3789 491.9375 543.3789 491.5938 Q543.3789 491.1719 543.5664 490.8438 Q543.7695 490.5156 544.082 490.2969 Q544.4102 490.0781 544.8164 489.9688 Q545.2383 489.8594 545.6758 489.8594 Q546.457 489.8594 547.0664 490.125 L547.0664 491.0938 Q546.4102 490.6719 545.5508 490.6719 Q545.2695 490.6719 545.0508 490.7344 Q544.8477 490.7969 544.6914 490.9062 Q544.5352 491.0156 544.4414 491.1719 Q544.3633 491.3281 544.3633 491.5156 Q544.3633 491.75 544.4414 491.9062 Q544.5352 492.0625 544.6914 492.1875 Q544.8633 492.3125 545.0977 492.4062 Q545.332 492.5 545.6289 492.625 Q546.0195 492.7812 546.332 492.9375 Q546.6602 493.0938 546.8789 493.2969 Q547.0977 493.5 547.2227 493.7656 Q547.3477 494.0312 547.3477 494.3906 Q547.3477 494.8438 547.1445 495.1719 Q546.957 495.5 546.6289 495.7188 Q546.3008 495.9219 545.8633 496.0312 Q545.4414 496.1406 544.9727 496.1406 Q544.0508 496.1406 543.3633 495.7812 ZM551.5957 495.9375 Q551.2676 496.125 550.7051 496.125 Q549.127 496.125 549.127 494.375 L549.127 490.8125 L548.0957 490.8125 L548.0957 490 L549.127 490 L549.127 488.5312 L550.0957 488.2188 L550.0957 490 L551.5957 490 L551.5957 490.8125 L550.0957 490.8125 L550.0957 494.2031 Q550.0957 494.7969 550.2988 495.0625 Q550.502 495.3125 550.9707 495.3125 Q551.3457 495.3125 551.5957 495.125 L551.5957 495.9375 ZM562.4492 492.5938 Q562.4492 496.1406 559.2617 496.1406 Q556.1992 496.1406 556.1992 492.7344 L556.1992 487.5938 L557.1836 487.5938 L557.1836 492.6719 Q557.1836 495.25 559.3555 495.25 Q561.4648 495.25 561.4648 492.7656 L561.4648 487.5938 L562.4492 487.5938 L562.4492 492.5938 ZM565.3965 495.125 L565.3809 495.125 L565.3809 498.7656 L564.4121 498.7656 L564.4121 490 L565.3809 490 L565.3809 491.0469 L565.3965 491.0469 Q566.1152 489.8594 567.4746 489.8594 Q568.6309 489.8594 569.2871 490.6719 Q569.9434 491.4688 569.9434 492.8281 Q569.9434 494.3281 569.209 495.2344 Q568.4746 496.1406 567.1934 496.1406 Q566.0371 496.1406 565.3965 495.125 ZM565.3809 492.7188 L565.3809 493.5469 Q565.3809 494.2969 565.8652 494.8125 Q566.3496 495.3281 567.084 495.3281 Q567.959 495.3281 568.459 494.6719 Q568.959 494 568.959 492.8125 Q568.959 491.7969 568.4902 491.2344 Q568.0215 490.6719 567.2402 490.6719 Q566.3965 490.6719 565.8809 491.25 Q565.3809 491.8281 565.3809 492.7188 ZM576.5918 496 L575.6387 496 L575.6387 494.9844 L575.6074 494.9844 Q574.9355 496.1406 573.5449 496.1406 Q572.4199 496.1406 571.7324 495.3438 Q571.0605 494.5312 571.0605 493.1406 Q571.0605 491.6562 571.8105 490.7656 Q572.5605 489.8594 573.8105 489.8594 Q575.0449 489.8594 575.6074 490.8281 L575.6387 490.8281 L575.6387 487.1094 L576.5918 487.1094 L576.5918 496 ZM575.6387 493.2812 L575.6387 492.4062 Q575.6387 491.6719 575.1543 491.1719 Q574.6699 490.6719 573.9355 490.6719 Q573.0605 490.6719 572.5449 491.3125 Q572.0449 491.9531 572.0449 493.0938 Q572.0449 494.125 572.5293 494.7344 Q573.0137 495.3281 573.8262 495.3281 Q574.623 495.3281 575.123 494.75 Q575.6387 494.1719 575.6387 493.2812 ZM582.8301 496 L581.877 496 L581.877 495.0625 L581.8457 495.0625 Q581.2207 496.1406 580.002 496.1406 Q579.1113 496.1406 578.5957 495.6719 Q578.0957 495.1875 578.0957 494.4062 Q578.0957 492.7188 580.0801 492.4531 L581.877 492.2031 Q581.877 490.6719 580.6426 490.6719 Q579.5488 490.6719 578.6738 491.4062 L578.6738 490.4219 Q579.5645 489.8594 580.7207 489.8594 Q582.8301 489.8594 582.8301 492.0938 L582.8301 496 ZM581.877 492.9688 L580.4238 493.1562 Q579.752 493.25 579.4082 493.5 Q579.0801 493.7344 579.0801 494.3281 Q579.0801 494.7812 579.3926 495.0625 Q579.7051 495.3281 580.2207 495.3281 Q580.9395 495.3281 581.4082 494.8281 Q581.877 494.3281 581.877 493.5625 L581.877 492.9688 ZM587.4199 495.9375 Q587.0918 496.125 586.5293 496.125 Q584.9512 496.125 584.9512 494.375 L584.9512 490.8125 L583.9199 490.8125 L583.9199 490 L584.9512 490 L584.9512 488.5312 L585.9199 488.2188 L585.9199 490 L587.4199 490 L587.4199 490.8125 L585.9199 490.8125 L585.9199 494.2031 Q585.9199 494.7969 586.123 495.0625 Q586.3262 495.3125 586.7949 495.3125 Q587.1699 495.3125 587.4199 495.125 L587.4199 495.9375 ZM593.5332 493.2344 L589.2988 493.2344 Q589.3145 494.2344 589.8301 494.7812 Q590.3457 495.3281 591.252 495.3281 Q592.2676 495.3281 593.1113 494.6562 L593.1113 495.5625 Q592.3301 496.1406 591.0176 496.1406 Q589.752 496.1406 589.0176 495.3281 Q588.2988 494.5 588.2988 493.0156 Q588.2988 491.625 589.0957 490.75 Q589.8926 489.8594 591.0645 489.8594 Q592.2363 489.8594 592.877 490.625 Q593.5332 491.375 593.5332 492.7344 L593.5332 493.2344 ZM592.5488 492.4219 Q592.5488 491.5938 592.1426 491.1406 Q591.752 490.6719 591.0488 490.6719 Q590.3613 490.6719 589.8926 491.1562 Q589.4238 491.6406 589.3145 492.4219 L592.5488 492.4219 ZM600.1055 496 L599.1523 496 L599.1523 494.9844 L599.1211 494.9844 Q598.4492 496.1406 597.0586 496.1406 Q595.9336 496.1406 595.2461 495.3438 Q594.5742 494.5312 594.5742 493.1406 Q594.5742 491.6562 595.3242 490.7656 Q596.0742 489.8594 597.3242 489.8594 Q598.5586 489.8594 599.1211 490.8281 L599.1523 490.8281 L599.1523 487.1094 L600.1055 487.1094 L600.1055 496 ZM599.1523 493.2812 L599.1523 492.4062 Q599.1523 491.6719 598.668 491.1719 Q598.1836 490.6719 597.4492 490.6719 Q596.5742 490.6719 596.0586 491.3125 Q595.5586 491.9531 595.5586 493.0938 Q595.5586 494.125 596.043 494.7344 Q596.5273 495.3281 597.3398 495.3281 Q598.1367 495.3281 598.6367 494.75 Q599.1523 494.1719 599.1523 493.2812 ZM609.6309 496 L608.6777 496 L608.6777 495.0625 L608.6465 495.0625 Q608.0215 496.1406 606.8027 496.1406 Q605.9121 496.1406 605.3965 495.6719 Q604.8965 495.1875 604.8965 494.4062 Q604.8965 492.7188 606.8809 492.4531 L608.6777 492.2031 Q608.6777 490.6719 607.4434 490.6719 Q606.3496 490.6719 605.4746 491.4062 L605.4746 490.4219 Q606.3652 489.8594 607.5215 489.8594 Q609.6309 489.8594 609.6309 492.0938 L609.6309 496 ZM608.6777 492.9688 L607.2246 493.1562 Q606.5527 493.25 606.209 493.5 Q605.8809 493.7344 605.8809 494.3281 Q605.8809 494.7812 606.1934 495.0625 Q606.5059 495.3281 607.0215 495.3281 Q607.7402 495.3281 608.209 494.8281 Q608.6777 494.3281 608.6777 493.5625 L608.6777 492.9688 ZM614.2207 495.9375 Q613.8926 496.125 613.3301 496.125 Q611.752 496.125 611.752 494.375 L611.752 490.8125 L610.7207 490.8125 L610.7207 490 L611.752 490 L611.752 488.5312 L612.7207 488.2188 L612.7207 490 L614.2207 490 L614.2207 490.8125 L612.7207 490.8125 L612.7207 494.2031 Q612.7207 494.7969 612.9238 495.0625 Q613.127 495.3125 613.5957 495.3125 Q613.9707 495.3125 614.2207 495.125 L614.2207 495.9375 ZM615.8496 491.1719 Q615.5684 491.1719 615.3809 490.9844 Q615.1934 490.7812 615.1934 490.5156 Q615.1934 490.25 615.3809 490.0625 Q615.5684 489.875 615.8496 489.875 Q616.1152 489.875 616.3027 490.0625 Q616.5059 490.25 616.5059 490.5156 Q616.5059 490.7812 616.3027 490.9844 Q616.1152 491.1719 615.8496 491.1719 ZM615.8496 496.125 Q615.5684 496.125 615.3809 495.9375 Q615.1934 495.7344 615.1934 495.4688 Q615.1934 495.2031 615.3809 495.0156 Q615.5684 494.8125 615.8496 494.8125 Q616.1152 494.8125 616.3027 495.0156 Q616.5059 495.2031 616.5059 495.4688 Q616.5059 495.7344 616.3027 495.9375 Q616.1152 496.125 615.8496 496.125 ZM624.957 489.7969 Q624.957 489.4062 624.832 489.125 Q624.707 488.8438 624.5039 488.6562 Q624.3008 488.4531 624.0195 488.3594 Q623.7383 488.2656 623.4102 488.2656 Q623.1289 488.2656 622.8477 488.3438 Q622.582 488.4219 622.3164 488.5625 Q622.0664 488.6875 621.832 488.875 Q621.5977 489.0625 621.3945 489.2969 L621.3945 488.2656 Q621.8008 487.875 622.3008 487.6719 Q622.8008 487.4531 623.5195 487.4531 Q624.0352 487.4531 624.4727 487.6094 Q624.9102 487.75 625.2383 488.0469 Q625.5664 488.3281 625.7383 488.75 Q625.9258 489.1719 625.9258 489.7188 Q625.9258 490.2188 625.8164 490.625 Q625.707 491.0312 625.4727 491.3906 Q625.2383 491.7344 624.8789 492.0625 Q624.5352 492.3906 624.0664 492.7344 Q623.4727 493.1562 623.082 493.4531 Q622.707 493.75 622.4727 494.0156 Q622.2539 494.2812 622.1602 494.5469 Q622.0664 494.7969 622.0664 495.1406 L626.2539 495.1406 L626.2539 496 L621.0664 496 L621.0664 495.5781 Q621.0664 495.0469 621.1758 494.6406 Q621.3008 494.2188 621.5664 493.8594 Q621.832 493.4844 622.2695 493.125 Q622.707 492.75 623.3477 492.2812 Q623.8008 491.9531 624.0977 491.6562 Q624.4102 491.3594 624.5977 491.0625 Q624.7852 490.7656 624.8633 490.4531 Q624.957 490.1406 624.957 489.7969 ZM632.8789 491.7656 Q632.8789 492.8125 632.6758 493.6406 Q632.4883 494.4531 632.1289 495.0156 Q631.7695 495.5625 631.2383 495.8594 Q630.7227 496.1406 630.0508 496.1406 Q629.4258 496.1406 628.9258 495.875 Q628.4258 495.5938 628.082 495.0625 Q627.7539 494.5156 627.5664 493.75 Q627.3945 492.9688 627.3945 491.9688 Q627.3945 490.8594 627.582 490.0156 Q627.7695 489.1719 628.1289 488.6094 Q628.4883 488.0312 629.0195 487.75 Q629.5508 487.4531 630.2227 487.4531 Q632.8789 487.4531 632.8789 491.7656 ZM631.8945 491.8594 Q631.8945 488.2656 630.1758 488.2656 Q628.3789 488.2656 628.3789 491.9219 Q628.3789 495.3281 630.1445 495.3281 Q631.8945 495.3281 631.8945 491.8594 ZM637.8945 489.7969 Q637.8945 489.4062 637.7695 489.125 Q637.6445 488.8438 637.4414 488.6562 Q637.2383 488.4531 636.957 488.3594 Q636.6758 488.2656 636.3477 488.2656 Q636.0664 488.2656 635.7852 488.3438 Q635.5195 488.4219 635.2539 488.5625 Q635.0039 488.6875 634.7695 488.875 Q634.5352 489.0625 634.332 489.2969 L634.332 488.2656 Q634.7383 487.875 635.2383 487.6719 Q635.7383 487.4531 636.457 487.4531 Q636.9727 487.4531 637.4102 487.6094 Q637.8477 487.75 638.1758 488.0469 Q638.5039 488.3281 638.6758 488.75 Q638.8633 489.1719 638.8633 489.7188 Q638.8633 490.2188 638.7539 490.625 Q638.6445 491.0312 638.4102 491.3906 Q638.1758 491.7344 637.8164 492.0625 Q637.4727 492.3906 637.0039 492.7344 Q636.4102 493.1562 636.0195 493.4531 Q635.6445 493.75 635.4102 494.0156 Q635.1914 494.2812 635.0977 494.5469 Q635.0039 494.7969 635.0039 495.1406 L639.1914 495.1406 L639.1914 496 L634.0039 496 L634.0039 495.5781 Q634.0039 495.0469 634.1133 494.6406 Q634.2383 494.2188 634.5039 493.8594 Q634.7695 493.4844 635.207 493.125 Q635.6445 492.75 636.2852 492.2812 Q636.7383 491.9531 637.0352 491.6562 Q637.3477 491.3594 637.5352 491.0625 Q637.7227 490.7656 637.8008 490.4531 Q637.8945 490.1406 637.8945 489.7969 ZM645.4102 493.625 Q645.4102 494.1875 645.1914 494.6562 Q644.9883 495.125 644.5977 495.4531 Q644.207 495.7812 643.6602 495.9688 Q643.1133 496.1406 642.457 496.1406 Q641.2695 496.1406 640.5508 495.6875 L640.5508 494.6562 Q641.4102 495.3281 642.5039 495.3281 Q642.9414 495.3281 643.2852 495.2188 Q643.6445 495.1094 643.8945 494.9062 Q644.1602 494.6875 644.2852 494.3906 Q644.4258 494.0781 644.4258 493.7031 Q644.4258 492.0625 642.082 492.0625 L641.3945 492.0625 L641.3945 491.25 L642.0508 491.25 Q644.1289 491.25 644.1289 489.7031 Q644.1289 488.2656 642.5508 488.2656 Q641.6602 488.2656 640.8789 488.875 L640.8789 487.9375 Q641.6758 487.4531 642.7852 487.4531 Q643.3164 487.4531 643.7383 487.6094 Q644.1758 487.75 644.4727 488.0156 Q644.7852 488.2812 644.9414 488.6562 Q645.1133 489.0156 645.1133 489.4531 Q645.1133 491.125 643.4414 491.5938 L643.4414 491.6094 Q643.8633 491.6562 644.2227 491.8281 Q644.5977 491.9844 644.8477 492.25 Q645.1133 492.5 645.2539 492.8594 Q645.4102 493.2031 645.4102 493.625 ZM650.3477 493.0312 L647.1445 493.0312 L647.1445 492.2812 L650.3477 492.2812 L650.3477 493.0312 ZM657.084 491.7656 Q657.084 492.8125 656.8809 493.6406 Q656.6934 494.4531 656.334 495.0156 Q655.9746 495.5625 655.4434 495.8594 Q654.9277 496.1406 654.2559 496.1406 Q653.6309 496.1406 653.1309 495.875 Q652.6309 495.5938 652.2871 495.0625 Q651.959 494.5156 651.7715 493.75 Q651.5996 492.9688 651.5996 491.9688 Q651.5996 490.8594 651.7871 490.0156 Q651.9746 489.1719 652.334 488.6094 Q652.6934 488.0312 653.2246 487.75 Q653.7559 487.4531 654.4277 487.4531 Q657.084 487.4531 657.084 491.7656 ZM656.0996 491.8594 Q656.0996 488.2656 654.3809 488.2656 Q652.584 488.2656 652.584 491.9219 Q652.584 495.3281 654.3496 495.3281 Q656.0996 495.3281 656.0996 491.8594 ZM663.1465 493.625 Q663.1465 494.1875 662.9277 494.6562 Q662.7246 495.125 662.334 495.4531 Q661.9434 495.7812 661.3965 495.9688 Q660.8496 496.1406 660.1934 496.1406 Q659.0059 496.1406 658.2871 495.6875 L658.2871 494.6562 Q659.1465 495.3281 660.2402 495.3281 Q660.6777 495.3281 661.0215 495.2188 Q661.3809 495.1094 661.6309 494.9062 Q661.8965 494.6875 662.0215 494.3906 Q662.1621 494.0781 662.1621 493.7031 Q662.1621 492.0625 659.8184 492.0625 L659.1309 492.0625 L659.1309 491.25 L659.7871 491.25 Q661.8652 491.25 661.8652 489.7031 Q661.8652 488.2656 660.2871 488.2656 Q659.3965 488.2656 658.6152 488.875 L658.6152 487.9375 Q659.4121 487.4531 660.5215 487.4531 Q661.0527 487.4531 661.4746 487.6094 Q661.9121 487.75 662.209 488.0156 Q662.5215 488.2812 662.6777 488.6562 Q662.8496 489.0156 662.8496 489.4531 Q662.8496 491.125 661.1777 491.5938 L661.1777 491.6094 Q661.5996 491.6562 661.959 491.8281 Q662.334 491.9844 662.584 492.25 Q662.8496 492.5 662.9902 492.8594 Q663.1465 493.2031 663.1465 493.625 ZM668.084 493.0312 L664.8809 493.0312 L664.8809 492.2812 L668.084 492.2812 L668.084 493.0312 ZM674.4141 493.625 Q674.4141 494.1875 674.1953 494.6562 Q673.9922 495.125 673.6016 495.4531 Q673.2109 495.7812 672.6641 495.9688 Q672.1172 496.1406 671.4609 496.1406 Q670.2734 496.1406 669.5547 495.6875 L669.5547 494.6562 Q670.4141 495.3281 671.5078 495.3281 Q671.9453 495.3281 672.2891 495.2188 Q672.6484 495.1094 672.8984 494.9062 Q673.1641 494.6875 673.2891 494.3906 Q673.4297 494.0781 673.4297 493.7031 Q673.4297 492.0625 671.0859 492.0625 L670.3984 492.0625 L670.3984 491.25 L671.0547 491.25 Q673.1328 491.25 673.1328 489.7031 Q673.1328 488.2656 671.5547 488.2656 Q670.6641 488.2656 669.8828 488.875 L669.8828 487.9375 Q670.6797 487.4531 671.7891 487.4531 Q672.3203 487.4531 672.7422 487.6094 Q673.1797 487.75 673.4766 488.0156 Q673.7891 488.2812 673.9453 488.6562 Q674.1172 489.0156 674.1172 489.4531 Q674.1172 491.125 672.4453 491.5938 L672.4453 491.6094 Q672.8672 491.6562 673.2266 491.8281 Q673.6016 491.9844 673.8516 492.25 Q674.1172 492.5 674.2578 492.8594 Q674.4141 493.2031 674.4141 493.625 ZM679.5547 496 L678.5859 496 L678.5859 488.7344 Q678.4766 488.8438 678.2578 489 Q678.0547 489.1406 677.7734 489.2812 Q677.5078 489.4219 677.2109 489.5469 Q676.9297 489.6719 676.6484 489.7344 L676.6484 488.7656 Q676.9609 488.6719 677.3047 488.5312 Q677.6641 488.375 678.0078 488.1875 Q678.3516 488 678.6484 487.8125 Q678.9609 487.6094 679.1797 487.4062 L679.5547 487.4062 L679.5547 496 ZM683.6328 494.6562 L682.6953 497.5469 L682.0078 497.5469 L682.6953 494.6562 L683.6328 494.6562 ZM692.8438 496.1406 Q692.5156 496.1406 692.25 496.0469 Q692 495.9531 691.7812 495.7969 Q691.5625 495.625 691.3594 495.3906 Q691.1562 495.1406 690.9375 494.8281 Q690.7031 495.0781 690.3906 495.3125 Q690.0938 495.5469 689.7188 495.7344 Q689.3438 495.9219 688.8906 496.0312 Q688.4531 496.1406 687.9219 496.1406 Q687.2969 496.1406 686.7656 495.9844 Q686.2344 495.8125 685.8594 495.5156 Q685.4844 495.2031 685.2812 494.75 Q685.0781 494.2969 685.0781 493.7188 Q685.0781 492.8125 685.5781 492.1875 Q686.0938 491.5469 687.0312 491.1406 Q686.8438 491.0156 686.6719 490.8438 Q686.5 490.6719 686.3594 490.4531 Q686.2188 490.2344 686.125 489.9688 Q686.0469 489.6875 686.0469 489.375 Q686.0469 488.9219 686.2188 488.5625 Q686.3906 488.2031 686.6719 487.9531 Q686.9688 487.7031 687.3594 487.5781 Q687.7656 487.4531 688.2344 487.4531 Q688.6875 487.4531 689.0625 487.5781 Q689.4375 487.7031 689.7031 487.9375 Q689.9844 488.1719 690.1406 488.5 Q690.2969 488.8281 690.2969 489.2344 Q690.2969 489.9375 689.8906 490.4062 Q689.4844 490.875 688.6875 491.2031 Q689.0938 491.3594 689.4219 491.5938 Q689.75 491.8125 690.0312 492.0938 Q690.3125 492.375 690.5469 492.7031 Q690.7812 493.0156 691.0156 493.375 Q691.5 492.7031 691.7344 491.9062 Q691.9688 491.1094 691.9688 490.2344 Q691.9688 490.0156 691.9375 489.8281 Q691.9219 489.625 691.875 489.4375 L692.8125 489.4375 Q692.8594 489.625 692.8594 489.7969 Q692.875 489.9688 692.8906 490.2031 Q692.8906 490.75 692.7656 491.2969 Q692.6562 491.8281 692.4688 492.3281 Q692.2812 492.8281 692.0312 493.2969 Q691.7812 493.75 691.5156 494.125 Q691.7188 494.4062 691.8906 494.625 Q692.0625 494.8281 692.2344 494.9688 Q692.4062 495.1094 692.5781 495.1875 Q692.7656 495.25 693 495.25 Q693.1875 495.25 693.3594 495.2031 Q693.5469 495.1562 693.7344 495.0781 L693.7344 495.9688 Q693.5312 496.0469 693.2969 496.0938 Q693.0625 496.1406 692.8438 496.1406 ZM687.9219 495.2969 Q688.375 495.2969 688.75 495.2031 Q689.125 495.1094 689.4375 494.9531 Q689.75 494.7812 690 494.5781 Q690.2656 494.3594 690.4844 494.125 Q690.125 493.5625 689.8125 493.1719 Q689.5156 492.7812 689.2031 492.5 Q688.9062 492.2031 688.5469 492 Q688.2031 491.7969 687.75 491.6094 Q687.375 491.7656 687.0625 491.9531 Q686.7656 492.125 686.5312 492.375 Q686.3125 492.6094 686.1719 492.9375 Q686.0469 493.25 686.0469 493.6875 Q686.0469 494.0781 686.1875 494.3906 Q686.3438 494.6875 686.5938 494.8906 Q686.8594 495.0938 687.1875 495.2031 Q687.5312 495.2969 687.9219 495.2969 ZM689.3906 489.3125 Q689.3906 489.0312 689.2812 488.8281 Q689.1719 488.6094 689 488.4844 Q688.8438 488.3438 688.6406 488.2812 Q688.4375 488.2188 688.2344 488.2188 Q687.6562 488.2188 687.3125 488.5312 Q686.9688 488.8438 686.9688 489.375 Q686.9688 489.625 687.0312 489.8438 Q687.1094 490.0469 687.2344 490.2344 Q687.375 490.4062 687.5469 490.5469 Q687.7344 490.6875 687.9219 490.7812 Q688.6719 490.5312 689.0312 490.1875 Q689.3906 489.8438 689.3906 489.3125 ZM700.8066 489.9531 L700.6816 490.5781 L699.1504 490.5781 L698.7754 492.3281 L700.4316 492.3281 L700.2598 492.9531 L698.6504 492.9531 L698.1348 495.2812 L697.4004 495.2812 L697.9004 492.9531 L696.4473 492.9531 L695.9473 495.2812 L695.2129 495.2812 L695.7129 492.9531 L694.166 492.9531 L694.291 492.3281 L695.8379 492.3281 L696.1973 490.5781 L694.5723 490.5781 L694.6973 489.9531 L696.3223 489.9531 L696.8223 487.5938 L697.5566 487.5938 L697.0566 489.9531 L698.541 489.9531 L699.041 487.5938 L699.7598 487.5938 L699.2754 489.9531 L700.8066 489.9531 ZM698.416 490.5781 L696.9473 490.5781 L696.5566 492.3281 L698.041 492.3281 L698.416 490.5781 ZM706.4277 490 L704.4121 493.0312 L706.3965 496 L705.2715 496 L704.0996 494.0469 Q703.9746 493.875 703.834 493.5938 L703.8027 493.5938 Q703.7715 493.6562 703.5371 494.0469 L702.334 496 L701.2246 496 L703.2715 493.0625 L701.3027 490 L702.4277 490 L703.584 492.0469 Q703.7246 492.2812 703.834 492.5156 L703.8652 492.5156 L705.3652 490 L706.4277 490 ZM707.6855 496 L707.6855 487.5938 L709.998 487.5938 Q714.4355 487.5938 714.4355 491.6875 Q714.4355 493.6406 713.2012 494.8281 Q711.9668 496 709.9043 496 L707.6855 496 ZM708.6699 488.4844 L708.6699 495.1094 L709.9199 495.1094 Q711.5762 495.1094 712.4824 494.2344 Q713.4043 493.3438 713.4043 491.7188 Q713.4043 488.4844 709.9824 488.4844 L708.6699 488.4844 ZM716.3184 491.1719 Q716.0371 491.1719 715.8496 490.9844 Q715.6621 490.7812 715.6621 490.5156 Q715.6621 490.25 715.8496 490.0625 Q716.0371 489.875 716.3184 489.875 Q716.584 489.875 716.7715 490.0625 Q716.9746 490.25 716.9746 490.5156 Q716.9746 490.7812 716.7715 490.9844 Q716.584 491.1719 716.3184 491.1719 ZM716.8496 494.6562 L715.9121 497.5469 L715.2246 497.5469 L715.9121 494.6562 L716.8496 494.6562 Z"
                  stroke="none" clip-path="url(#clipPath4)"/>
            <path d="M539.4688 511.1406 Q539.1406 511.1406 538.875 511.0469 Q538.625 510.9531 538.4062 510.7969 Q538.1875 510.625 537.9844 510.3906 Q537.7812 510.1406 537.5625 509.8281 Q537.3281 510.0781 537.0156 510.3125 Q536.7188 510.5469 536.3438 510.7344 Q535.9688 510.9219 535.5156 511.0312 Q535.0781 511.1406 534.5469 511.1406 Q533.9219 511.1406 533.3906 510.9844 Q532.8594 510.8125 532.4844 510.5156 Q532.1094 510.2031 531.9062 509.75 Q531.7031 509.2969 531.7031 508.7188 Q531.7031 507.8125 532.2031 507.1875 Q532.7188 506.5469 533.6562 506.1406 Q533.4688 506.0156 533.2969 505.8438 Q533.125 505.6719 532.9844 505.4531 Q532.8438 505.2344 532.75 504.9688 Q532.6719 504.6875 532.6719 504.375 Q532.6719 503.9219 532.8438 503.5625 Q533.0156 503.2031 533.2969 502.9531 Q533.5938 502.7031 533.9844 502.5781 Q534.3906 502.4531 534.8594 502.4531 Q535.3125 502.4531 535.6875 502.5781 Q536.0625 502.7031 536.3281 502.9375 Q536.6094 503.1719 536.7656 503.5 Q536.9219 503.8281 536.9219 504.2344 Q536.9219 504.9375 536.5156 505.4062 Q536.1094 505.875 535.3125 506.2031 Q535.7188 506.3594 536.0469 506.5938 Q536.375 506.8125 536.6562 507.0938 Q536.9375 507.375 537.1719 507.7031 Q537.4062 508.0156 537.6406 508.375 Q538.125 507.7031 538.3594 506.9062 Q538.5938 506.1094 538.5938 505.2344 Q538.5938 505.0156 538.5625 504.8281 Q538.5469 504.625 538.5 504.4375 L539.4375 504.4375 Q539.4844 504.625 539.4844 504.7969 Q539.5 504.9688 539.5156 505.2031 Q539.5156 505.75 539.3906 506.2969 Q539.2812 506.8281 539.0938 507.3281 Q538.9062 507.8281 538.6562 508.2969 Q538.4062 508.75 538.1406 509.125 Q538.3438 509.4062 538.5156 509.625 Q538.6875 509.8281 538.8594 509.9688 Q539.0312 510.1094 539.2031 510.1875 Q539.3906 510.25 539.625 510.25 Q539.8125 510.25 539.9844 510.2031 Q540.1719 510.1562 540.3594 510.0781 L540.3594 510.9688 Q540.1562 511.0469 539.9219 511.0938 Q539.6875 511.1406 539.4688 511.1406 ZM534.5469 510.2969 Q535 510.2969 535.375 510.2031 Q535.75 510.1094 536.0625 509.9531 Q536.375 509.7812 536.625 509.5781 Q536.8906 509.3594 537.1094 509.125 Q536.75 508.5625 536.4375 508.1719 Q536.1406 507.7812 535.8281 507.5 Q535.5312 507.2031 535.1719 507 Q534.8281 506.7969 534.375 506.6094 Q534 506.7656 533.6875 506.9531 Q533.3906 507.125 533.1562 507.375 Q532.9375 507.6094 532.7969 507.9375 Q532.6719 508.25 532.6719 508.6875 Q532.6719 509.0781 532.8125 509.3906 Q532.9688 509.6875 533.2188 509.8906 Q533.4844 510.0938 533.8125 510.2031 Q534.1562 510.2969 534.5469 510.2969 ZM536.0156 504.3125 Q536.0156 504.0312 535.9062 503.8281 Q535.7969 503.6094 535.625 503.4844 Q535.4688 503.3438 535.2656 503.2812 Q535.0625 503.2188 534.8594 503.2188 Q534.2812 503.2188 533.9375 503.5312 Q533.5938 503.8438 533.5938 504.375 Q533.5938 504.625 533.6562 504.8438 Q533.7344 505.0469 533.8594 505.2344 Q534 505.4062 534.1719 505.5469 Q534.3594 505.6875 534.5469 505.7812 Q535.2969 505.5312 535.6562 505.1875 Q536.0156 504.8438 536.0156 504.3125 ZM547.4316 504.9531 L547.3066 505.5781 L545.7754 505.5781 L545.4004 507.3281 L547.0566 507.3281 L546.8848 507.9531 L545.2754 507.9531 L544.7598 510.2812 L544.0254 510.2812 L544.5254 507.9531 L543.0723 507.9531 L542.5723 510.2812 L541.8379 510.2812 L542.3379 507.9531 L540.791 507.9531 L540.916 507.3281 L542.4629 507.3281 L542.8223 505.5781 L541.1973 505.5781 L541.3223 504.9531 L542.9473 504.9531 L543.4473 502.5938 L544.1816 502.5938 L543.6816 504.9531 L545.166 504.9531 L545.666 502.5938 L546.3848 502.5938 L545.9004 504.9531 L547.4316 504.9531 ZM545.041 505.5781 L543.5723 505.5781 L543.1816 507.3281 L544.666 507.3281 L545.041 505.5781 ZM553.0527 505 L551.0371 508.0312 L553.0215 511 L551.8965 511 L550.7246 509.0469 Q550.5996 508.875 550.459 508.5938 L550.4277 508.5938 Q550.3965 508.6562 550.1621 509.0469 L548.959 511 L547.8496 511 L549.8965 508.0625 L547.9277 505 L549.0527 505 L550.209 507.0469 Q550.3496 507.2812 550.459 507.5156 L550.4902 507.5156 L551.9902 505 L553.0527 505 ZM560.8105 511 L559.7168 511 L558.8262 508.6406 L555.2637 508.6406 L554.4199 511 L553.3262 511 L556.5605 502.5938 L557.5762 502.5938 L560.8105 511 ZM558.498 507.7656 L557.1855 504.1719 Q557.123 504 557.0605 503.6094 L557.0293 503.6094 Q556.9824 503.9688 556.9043 504.1719 L555.5918 507.7656 L558.498 507.7656 ZM562.2695 506.1719 Q561.9883 506.1719 561.8008 505.9844 Q561.6133 505.7812 561.6133 505.5156 Q561.6133 505.25 561.8008 505.0625 Q561.9883 504.875 562.2695 504.875 Q562.5352 504.875 562.7227 505.0625 Q562.9258 505.25 562.9258 505.5156 Q562.9258 505.7812 562.7227 505.9844 Q562.5352 506.1719 562.2695 506.1719 ZM562.8008 509.6562 L561.8633 512.5469 L561.1758 512.5469 L561.8633 509.6562 L562.8008 509.6562 ZM569.0117 511 L564.6523 511 L564.6523 502.5938 L565.6367 502.5938 L565.6367 510.1094 L569.0117 510.1094 L569.0117 511 ZM574.457 511 L573.5039 511 L573.5039 510.0625 L573.4727 510.0625 Q572.8477 511.1406 571.6289 511.1406 Q570.7383 511.1406 570.2227 510.6719 Q569.7227 510.1875 569.7227 509.4062 Q569.7227 507.7188 571.707 507.4531 L573.5039 507.2031 Q573.5039 505.6719 572.2695 505.6719 Q571.1758 505.6719 570.3008 506.4062 L570.3008 505.4219 Q571.1914 504.8594 572.3477 504.8594 Q574.457 504.8594 574.457 507.0938 L574.457 511 ZM573.5039 507.9688 L572.0508 508.1562 Q571.3789 508.25 571.0352 508.5 Q570.707 508.7344 570.707 509.3281 Q570.707 509.7812 571.0195 510.0625 Q571.332 510.3281 571.8477 510.3281 Q572.5664 510.3281 573.0352 509.8281 Q573.5039 509.3281 573.5039 508.5625 L573.5039 507.9688 ZM575.9062 510.7812 L575.9062 509.75 Q576.6875 510.3281 577.6406 510.3281 Q578.9062 510.3281 578.9062 509.4844 Q578.9062 509.25 578.7969 509.0781 Q578.6875 508.9062 578.5 508.7812 Q578.3125 508.6562 578.0625 508.5625 Q577.8125 508.4531 577.5312 508.3438 Q577.125 508.1875 576.8281 508.0312 Q576.5312 507.8594 576.3281 507.6562 Q576.125 507.4531 576.0156 507.2031 Q575.9219 506.9375 575.9219 506.5938 Q575.9219 506.1719 576.1094 505.8438 Q576.3125 505.5156 576.625 505.2969 Q576.9531 505.0781 577.3594 504.9688 Q577.7812 504.8594 578.2188 504.8594 Q579 504.8594 579.6094 505.125 L579.6094 506.0938 Q578.9531 505.6719 578.0938 505.6719 Q577.8125 505.6719 577.5938 505.7344 Q577.3906 505.7969 577.2344 505.9062 Q577.0781 506.0156 576.9844 506.1719 Q576.9062 506.3281 576.9062 506.5156 Q576.9062 506.75 576.9844 506.9062 Q577.0781 507.0625 577.2344 507.1875 Q577.4062 507.3125 577.6406 507.4062 Q577.875 507.5 578.1719 507.625 Q578.5625 507.7812 578.875 507.9375 Q579.2031 508.0938 579.4219 508.2969 Q579.6406 508.5 579.7656 508.7656 Q579.8906 509.0312 579.8906 509.3906 Q579.8906 509.8438 579.6875 510.1719 Q579.5 510.5 579.1719 510.7188 Q578.8438 510.9219 578.4062 511.0312 Q577.9844 511.1406 577.5156 511.1406 Q576.5938 511.1406 575.9062 510.7812 ZM584.1387 510.9375 Q583.8105 511.125 583.248 511.125 Q581.6699 511.125 581.6699 509.375 L581.6699 505.8125 L580.6387 505.8125 L580.6387 505 L581.6699 505 L581.6699 503.5312 L582.6387 503.2188 L582.6387 505 L584.1387 505 L584.1387 505.8125 L582.6387 505.8125 L582.6387 509.2031 Q582.6387 509.7969 582.8418 510.0625 Q583.0449 510.3125 583.5137 510.3125 Q583.8887 510.3125 584.1387 510.125 L584.1387 510.9375 ZM594.9922 507.5938 Q594.9922 511.1406 591.8047 511.1406 Q588.7422 511.1406 588.7422 507.7344 L588.7422 502.5938 L589.7266 502.5938 L589.7266 507.6719 Q589.7266 510.25 591.8984 510.25 Q594.0078 510.25 594.0078 507.7656 L594.0078 502.5938 L594.9922 502.5938 L594.9922 507.5938 ZM597.9395 510.125 L597.9238 510.125 L597.9238 513.7656 L596.9551 513.7656 L596.9551 505 L597.9238 505 L597.9238 506.0469 L597.9395 506.0469 Q598.6582 504.8594 600.0176 504.8594 Q601.1738 504.8594 601.8301 505.6719 Q602.4863 506.4688 602.4863 507.8281 Q602.4863 509.3281 601.752 510.2344 Q601.0176 511.1406 599.7363 511.1406 Q598.5801 511.1406 597.9395 510.125 ZM597.9238 507.7188 L597.9238 508.5469 Q597.9238 509.2969 598.4082 509.8125 Q598.8926 510.3281 599.627 510.3281 Q600.502 510.3281 601.002 509.6719 Q601.502 509 601.502 507.8125 Q601.502 506.7969 601.0332 506.2344 Q600.5645 505.6719 599.7832 505.6719 Q598.9395 505.6719 598.4238 506.25 Q597.9238 506.8281 597.9238 507.7188 ZM609.1348 511 L608.1816 511 L608.1816 509.9844 L608.1504 509.9844 Q607.4785 511.1406 606.0879 511.1406 Q604.9629 511.1406 604.2754 510.3438 Q603.6035 509.5312 603.6035 508.1406 Q603.6035 506.6562 604.3535 505.7656 Q605.1035 504.8594 606.3535 504.8594 Q607.5879 504.8594 608.1504 505.8281 L608.1816 505.8281 L608.1816 502.1094 L609.1348 502.1094 L609.1348 511 ZM608.1816 508.2812 L608.1816 507.4062 Q608.1816 506.6719 607.6973 506.1719 Q607.2129 505.6719 606.4785 505.6719 Q605.6035 505.6719 605.0879 506.3125 Q604.5879 506.9531 604.5879 508.0938 Q604.5879 509.125 605.0723 509.7344 Q605.5566 510.3281 606.3691 510.3281 Q607.166 510.3281 607.666 509.75 Q608.1816 509.1719 608.1816 508.2812 ZM615.373 511 L614.4199 511 L614.4199 510.0625 L614.3887 510.0625 Q613.7637 511.1406 612.5449 511.1406 Q611.6543 511.1406 611.1387 510.6719 Q610.6387 510.1875 610.6387 509.4062 Q610.6387 507.7188 612.623 507.4531 L614.4199 507.2031 Q614.4199 505.6719 613.1855 505.6719 Q612.0918 505.6719 611.2168 506.4062 L611.2168 505.4219 Q612.1074 504.8594 613.2637 504.8594 Q615.373 504.8594 615.373 507.0938 L615.373 511 ZM614.4199 507.9688 L612.9668 508.1562 Q612.2949 508.25 611.9512 508.5 Q611.623 508.7344 611.623 509.3281 Q611.623 509.7812 611.9355 510.0625 Q612.248 510.3281 612.7637 510.3281 Q613.4824 510.3281 613.9512 509.8281 Q614.4199 509.3281 614.4199 508.5625 L614.4199 507.9688 ZM619.9629 510.9375 Q619.6348 511.125 619.0723 511.125 Q617.4941 511.125 617.4941 509.375 L617.4941 505.8125 L616.4629 505.8125 L616.4629 505 L617.4941 505 L617.4941 503.5312 L618.4629 503.2188 L618.4629 505 L619.9629 505 L619.9629 505.8125 L618.4629 505.8125 L618.4629 509.2031 Q618.4629 509.7969 618.666 510.0625 Q618.8691 510.3125 619.3379 510.3125 Q619.7129 510.3125 619.9629 510.125 L619.9629 510.9375 ZM626.0762 508.2344 L621.8418 508.2344 Q621.8574 509.2344 622.373 509.7812 Q622.8887 510.3281 623.7949 510.3281 Q624.8105 510.3281 625.6543 509.6562 L625.6543 510.5625 Q624.873 511.1406 623.5605 511.1406 Q622.2949 511.1406 621.5605 510.3281 Q620.8418 509.5 620.8418 508.0156 Q620.8418 506.625 621.6387 505.75 Q622.4355 504.8594 623.6074 504.8594 Q624.7793 504.8594 625.4199 505.625 Q626.0762 506.375 626.0762 507.7344 L626.0762 508.2344 ZM625.0918 507.4219 Q625.0918 506.5938 624.6855 506.1406 Q624.2949 505.6719 623.5918 505.6719 Q622.9043 505.6719 622.4355 506.1562 Q621.9668 506.6406 621.8574 507.4219 L625.0918 507.4219 ZM632.6484 511 L631.6953 511 L631.6953 509.9844 L631.6641 509.9844 Q630.9922 511.1406 629.6016 511.1406 Q628.4766 511.1406 627.7891 510.3438 Q627.1172 509.5312 627.1172 508.1406 Q627.1172 506.6562 627.8672 505.7656 Q628.6172 504.8594 629.8672 504.8594 Q631.1016 504.8594 631.6641 505.8281 L631.6953 505.8281 L631.6953 502.1094 L632.6484 502.1094 L632.6484 511 ZM631.6953 508.2812 L631.6953 507.4062 Q631.6953 506.6719 631.2109 506.1719 Q630.7266 505.6719 629.9922 505.6719 Q629.1172 505.6719 628.6016 506.3125 Q628.1016 506.9531 628.1016 508.0938 Q628.1016 509.125 628.5859 509.7344 Q629.0703 510.3281 629.8828 510.3281 Q630.6797 510.3281 631.1797 509.75 Q631.6953 509.1719 631.6953 508.2812 ZM638.8613 510.125 L638.8457 510.125 L638.8457 511 L637.877 511 L637.877 502.1094 L638.8457 502.1094 L638.8457 506.0469 L638.8613 506.0469 Q639.5801 504.8594 640.9395 504.8594 Q642.0957 504.8594 642.752 505.6719 Q643.4082 506.4688 643.4082 507.8281 Q643.4082 509.3281 642.6738 510.2344 Q641.9395 511.1406 640.6582 511.1406 Q639.4707 511.1406 638.8613 510.125 ZM638.8457 507.7188 L638.8457 508.5469 Q638.8457 509.2969 639.3301 509.8125 Q639.8145 510.3281 640.5488 510.3281 Q641.4238 510.3281 641.9238 509.6719 Q642.4238 509 642.4238 507.8125 Q642.4238 506.7969 641.9551 506.2344 Q641.4863 505.6719 640.7051 505.6719 Q639.8613 505.6719 639.3457 506.25 Q638.8457 506.8281 638.8457 507.7188 ZM649.7129 505 L646.9473 511.9688 Q646.2129 513.8281 644.8848 513.8281 Q644.5098 513.8281 644.2441 513.75 L644.2441 512.8906 Q644.5566 513 644.8223 513 Q645.541 513 645.916 512.125 L646.3848 510.9844 L644.041 505 L645.1191 505 L646.7285 509.6094 Q646.7598 509.7031 646.8535 510.0781 L646.9004 510.0781 Q646.916 509.9375 647.0098 509.625 L648.7129 505 L649.7129 505 ZM651.082 506.1719 Q650.8008 506.1719 650.6133 505.9844 Q650.4258 505.7812 650.4258 505.5156 Q650.4258 505.25 650.6133 505.0625 Q650.8008 504.875 651.082 504.875 Q651.3477 504.875 651.5352 505.0625 Q651.7383 505.25 651.7383 505.5156 Q651.7383 505.7812 651.5352 505.9844 Q651.3477 506.1719 651.082 506.1719 ZM651.082 511.125 Q650.8008 511.125 650.6133 510.9375 Q650.4258 510.7344 650.4258 510.4688 Q650.4258 510.2031 650.6133 510.0156 Q650.8008 509.8125 651.082 509.8125 Q651.3477 509.8125 651.5352 510.0156 Q651.7383 510.2031 651.7383 510.4688 Q651.7383 510.7344 651.5352 510.9375 Q651.3477 511.125 651.082 511.125 ZM662.5645 511 L661.3613 511 L659.4238 507.7812 Q659.3457 507.6406 659.2363 507.3594 L659.2051 507.3594 Q659.1582 507.5 659.0176 507.7812 L657.0176 511 L655.8145 511 L658.627 506.7812 L656.0332 502.5938 L657.2363 502.5938 L658.9551 505.5469 Q659.127 505.8438 659.252 506.1406 L659.2832 506.1406 Q659.4707 505.75 659.6113 505.5312 L661.3926 502.5938 L662.5332 502.5938 L659.877 506.7656 L662.5645 511 ZM664.2051 503.4688 Q663.9395 503.4688 663.752 503.2969 Q663.5801 503.125 663.5801 502.8594 Q663.5801 502.5781 663.752 502.4062 Q663.9395 502.2344 664.2051 502.2344 Q664.4707 502.2344 664.6426 502.4062 Q664.8301 502.5781 664.8301 502.8594 Q664.8301 503.1094 664.6426 503.2969 Q664.4707 503.4688 664.2051 503.4688 ZM664.6738 511 L663.7051 511 L663.7051 505 L664.6738 505 L664.6738 511 ZM670.9082 511 L669.9551 511 L669.9551 510.0625 L669.9238 510.0625 Q669.2988 511.1406 668.0801 511.1406 Q667.1895 511.1406 666.6738 510.6719 Q666.1738 510.1875 666.1738 509.4062 Q666.1738 507.7188 668.1582 507.4531 L669.9551 507.2031 Q669.9551 505.6719 668.7207 505.6719 Q667.627 505.6719 666.752 506.4062 L666.752 505.4219 Q667.6426 504.8594 668.7988 504.8594 Q670.9082 504.8594 670.9082 507.0938 L670.9082 511 ZM669.9551 507.9688 L668.502 508.1562 Q667.8301 508.25 667.4863 508.5 Q667.1582 508.7344 667.1582 509.3281 Q667.1582 509.7812 667.4707 510.0625 Q667.7832 510.3281 668.2988 510.3281 Q669.0176 510.3281 669.4863 509.8281 Q669.9551 509.3281 669.9551 508.5625 L669.9551 507.9688 ZM675.2324 511.1406 Q673.9043 511.1406 673.1074 510.2969 Q672.3105 509.4531 672.3105 508.0625 Q672.3105 506.5625 673.1387 505.7188 Q673.9668 504.8594 675.373 504.8594 Q676.7168 504.8594 677.4668 505.6875 Q678.2168 506.5156 678.2168 507.9688 Q678.2168 509.4062 677.4043 510.2812 Q676.5918 511.1406 675.2324 511.1406 ZM675.2949 505.6719 Q674.373 505.6719 673.8262 506.2969 Q673.2949 506.9219 673.2949 508.0312 Q673.2949 509.0938 673.8418 509.7188 Q674.3887 510.3281 675.2949 510.3281 Q676.2324 510.3281 676.7324 509.7344 Q677.2324 509.125 677.2324 508.0156 Q677.2324 506.8906 676.7324 506.2812 Q676.2324 505.6719 675.2949 505.6719 ZM684.873 513.7656 L683.9199 513.7656 L683.9199 509.9688 L683.8887 509.9688 Q683.2637 511.1406 681.8418 511.1406 Q680.7012 511.1406 680.0137 510.3438 Q679.3418 509.5312 679.3418 508.1406 Q679.3418 506.6406 680.0918 505.75 Q680.8418 504.8594 682.1074 504.8594 Q683.3418 504.8594 683.8887 505.8281 L683.9199 505.8281 L683.9199 505 L684.873 505 L684.873 513.7656 ZM683.9199 508.2969 L683.9199 507.4219 Q683.9199 506.6875 683.4355 506.1875 Q682.9512 505.6719 682.2012 505.6719 Q681.3418 505.6719 680.8262 506.3125 Q680.3262 506.9531 680.3262 508.1094 Q680.3262 509.1562 680.8105 509.75 Q681.2949 510.3281 682.0605 510.3281 Q682.9043 510.3281 683.4043 509.75 Q683.9199 509.1719 683.9199 508.2969 ZM687.3145 503.4688 Q687.0488 503.4688 686.8613 503.2969 Q686.6895 503.125 686.6895 502.8594 Q686.6895 502.5781 686.8613 502.4062 Q687.0488 502.2344 687.3145 502.2344 Q687.5801 502.2344 687.752 502.4062 Q687.9395 502.5781 687.9395 502.8594 Q687.9395 503.1094 687.752 503.2969 Q687.5801 503.4688 687.3145 503.4688 ZM687.7832 511 L686.8145 511 L686.8145 505 L687.7832 505 L687.7832 511 ZM698.6328 502.8281 L693.7109 510.1094 L698.5078 510.1094 L698.5078 511 L692.2266 511 L692.2266 510.7188 L697.1172 503.4844 L692.6328 503.4844 L692.6328 502.5938 L698.6328 502.5938 L698.6328 502.8281 ZM704.8359 511 L703.8828 511 L703.8828 507.5469 Q703.8828 505.6719 702.4766 505.6719 Q701.7734 505.6719 701.2891 506.2188 Q700.8203 506.75 700.8203 507.5938 L700.8203 511 L699.8516 511 L699.8516 502.1094 L700.8203 502.1094 L700.8203 506 L700.8359 506 Q701.5391 504.8594 702.8047 504.8594 Q704.8359 504.8594 704.8359 507.2969 L704.8359 511 ZM710.9395 511 L709.9863 511 L709.9863 510.0625 L709.9551 510.0625 Q709.3301 511.1406 708.1113 511.1406 Q707.2207 511.1406 706.7051 510.6719 Q706.2051 510.1875 706.2051 509.4062 Q706.2051 507.7188 708.1895 507.4531 L709.9863 507.2031 Q709.9863 505.6719 708.752 505.6719 Q707.6582 505.6719 706.7832 506.4062 L706.7832 505.4219 Q707.6738 504.8594 708.8301 504.8594 Q710.9395 504.8594 710.9395 507.0938 L710.9395 511 ZM709.9863 507.9688 L708.5332 508.1562 Q707.8613 508.25 707.5176 508.5 Q707.1895 508.7344 707.1895 509.3281 Q707.1895 509.7812 707.502 510.0625 Q707.8145 510.3281 708.3301 510.3281 Q709.0488 510.3281 709.5176 509.8281 Q709.9863 509.3281 709.9863 508.5625 L709.9863 507.9688 ZM715.2637 511.1406 Q713.9355 511.1406 713.1387 510.2969 Q712.3418 509.4531 712.3418 508.0625 Q712.3418 506.5625 713.1699 505.7188 Q713.998 504.8594 715.4043 504.8594 Q716.748 504.8594 717.498 505.6875 Q718.248 506.5156 718.248 507.9688 Q718.248 509.4062 717.4355 510.2812 Q716.623 511.1406 715.2637 511.1406 ZM715.3262 505.6719 Q714.4043 505.6719 713.8574 506.2969 Q713.3262 506.9219 713.3262 508.0312 Q713.3262 509.0938 713.873 509.7188 Q714.4199 510.3281 715.3262 510.3281 Q716.2637 510.3281 716.7637 509.7344 Q717.2637 509.125 717.2637 508.0156 Q717.2637 506.8906 716.7637 506.2812 Q716.2637 505.6719 715.3262 505.6719 Z"
                  clip-path="url(#clipPath4)" stroke="none"/>
        </g>
    </g>
</svg>
